<svg width="54" height="56" viewBox="0 0 54 56" fill="none" xmlns="http://www.w3.org/2000/svg">
<g filter="url(#filter0_d_393_76)">
<path d="M23.7292 38.2708C23.4167 38.2708 23.1251 38.1875 22.8542 38C22.4167 37.7083 22.1667 37.2292 22.1667 36.7083C22.1667 36.3958 22.1459 36.0625 22.1042 35.7292C21.9167 34.25 21.2501 32.9583 20.1251 31.8333C19.0001 30.7083 17.6042 30 16.1042 29.8125C15.8542 29.7917 15.5001 29.7708 15.1667 29.7917C14.6251 29.8333 14.1251 29.6042 13.8126 29.1667C13.5001 28.75 13.4167 28.1875 13.5834 27.6875C13.8959 26.8333 14.3542 26.0625 14.8959 25.4375L18.1042 21.3958C23.6251 14.5 34.8126 6.20833 43.0001 2.91667C44.7292 2.25 46.5834 2.64583 47.8542 3.89583C49.1667 5.20833 49.5626 7.08333 48.8751 8.79167C45.5834 17 37.3126 28.1667 30.4167 33.6875L26.3126 36.9792C25.5417 37.5417 24.9167 37.8958 24.2917 38.1458C24.1251 38.2292 23.9167 38.2708 23.7292 38.2708ZM17.7084 26.9583C19.4584 27.4167 21.0209 28.3333 22.3334 29.6458C23.6459 30.9375 24.5209 32.4375 24.9584 34.1042L28.4792 31.2708C35.0209 26.0417 42.8751 15.4375 45.9792 7.64583C46.2917 6.875 45.8542 6.33333 45.6459 6.14583C45.5001 6 44.9584 5.54167 44.1251 5.85417C36.3751 8.97917 25.7709 16.8333 20.5209 23.375L17.7084 26.9583Z" fill="#B5838D"/>
<path d="M10.5 47.3958C8.93755 47.3958 7.43755 46.7708 6.31255 45.6458C5.02088 44.3542 4.39588 42.5625 4.60421 40.7292L5.16671 35.6042C5.70838 30.5208 9.87505 26.75 15.0417 26.6458C15.4375 26.625 15.9584 26.6458 16.4375 26.6875C18.7084 26.9792 20.7292 28 22.3542 29.625C23.9584 31.2292 24.9167 33.1458 25.2084 35.2917C25.2709 35.75 25.3125 36.25 25.3125 36.6875C25.3125 39.4375 24.25 42 22.3334 43.9375C20.7292 45.5208 18.6667 46.5 16.3334 46.7917L11.1875 47.3542C10.9584 47.375 10.7292 47.3958 10.5 47.3958ZM15.4375 29.7917C15.3542 29.7917 15.25 29.7917 15.1667 29.7917C12.0209 29.8542 8.68755 32 8.27088 35.9583L7.70838 41.0833C7.60421 41.9583 7.91671 42.8125 8.52088 43.4375C9.12505 44.0417 9.97921 44.3542 10.8334 44.25L15.9584 43.6875C17.5625 43.4792 19 42.8125 20.0834 41.7292C21.4167 40.3958 22.1667 38.6042 22.1667 36.6875C22.1667 36.375 22.1459 36.0417 22.1042 35.7083C21.9167 34.2292 21.25 32.9375 20.125 31.8125C19 30.6875 17.6042 29.9792 16.1042 29.7917C15.9375 29.7917 15.6875 29.7917 15.4375 29.7917Z" fill="#B5838D"/>
<path d="M31.6667 31.7083C30.8125 31.7083 30.1042 31 30.1042 30.1458C30.1042 25.5625 26.375 21.8542 21.8125 21.8542C20.9583 21.8542 20.25 21.1458 20.25 20.2917C20.25 19.4375 20.9375 18.7292 21.7917 18.7292C28.0833 18.7292 33.2083 23.8542 33.2083 30.1458C33.2292 31.0208 32.5208 31.7083 31.6667 31.7083Z" fill="#B5838D"/>
</g>
<defs>
<filter id="filter0_d_393_76" x="0.564819" y="2.59619" width="52.6429" height="52.7997" filterUnits="userSpaceOnUse" color-interpolation-filters="sRGB">
<feFlood flood-opacity="0" result="BackgroundImageFix"/>
<feColorMatrix in="SourceAlpha" type="matrix" values="0 0 0 0 0 0 0 0 0 0 0 0 0 0 0 0 0 0 127 0" result="hardAlpha"/>
<feOffset dy="4"/>
<feGaussianBlur stdDeviation="2"/>
<feComposite in2="hardAlpha" operator="out"/>
<feColorMatrix type="matrix" values="0 0 0 0 0 0 0 0 0 0 0 0 0 0 0 0 0 0 0.25 0"/>
<feBlend mode="normal" in2="BackgroundImageFix" result="effect1_dropShadow_393_76"/>
<feBlend mode="normal" in="SourceGraphic" in2="effect1_dropShadow_393_76" result="shape"/>
</filter>
</defs>
</svg>
