<svg width="50" height="50" viewBox="0 0 50 50" fill="none" xmlns="http://www.w3.org/2000/svg">
<path d="M16.6666 11.9792C15.8125 11.9792 15.1041 11.2709 15.1041 10.4167V4.16669C15.1041 3.31252 15.8125 2.60419 16.6666 2.60419C17.5208 2.60419 18.2291 3.31252 18.2291 4.16669V10.4167C18.2291 11.2709 17.5208 11.9792 16.6666 11.9792Z" fill="#B5838D"/>
<path d="M33.3334 11.9792C32.4792 11.9792 31.7709 11.2709 31.7709 10.4167V4.16669C31.7709 3.31252 32.4792 2.60419 33.3334 2.60419C34.1875 2.60419 34.8959 3.31252 34.8959 4.16669V10.4167C34.8959 11.2709 34.1875 11.9792 33.3334 11.9792Z" fill="#B5838D"/>
<path d="M37.9167 46.1458C33.375 46.1458 29.6875 42.4584 29.6875 37.9167C29.6875 33.375 33.375 29.6875 37.9167 29.6875C42.4583 29.6875 46.1458 33.375 46.1458 37.9167C46.1458 42.4584 42.4583 46.1458 37.9167 46.1458ZM37.9167 32.8125C35.1042 32.8125 32.8125 35.1042 32.8125 37.9167C32.8125 40.7292 35.1042 43.0208 37.9167 43.0208C40.7292 43.0208 43.0208 40.7292 43.0208 37.9167C43.0208 35.1042 40.7292 32.8125 37.9167 32.8125Z" fill="#B5838D"/>
<path d="M45.8333 47.3958C45.4374 47.3958 45.0416 47.25 44.7291 46.9375L42.6458 44.8541C42.0416 44.25 42.0416 43.25 42.6458 42.6458C43.2499 42.0416 44.2499 42.0416 44.8541 42.6458L46.9374 44.7291C47.5416 45.3333 47.5416 46.3333 46.9374 46.9375C46.6249 47.25 46.2291 47.3958 45.8333 47.3958Z" fill="#B5838D"/>
<path d="M17.7083 30.2083C17.4375 30.2083 17.1667 30.1458 16.9167 30.0417C16.6458 29.9375 16.4167 29.7916 16.2292 29.6041C16.1458 29.5 16.0417 29.3958 15.9792 29.2916C15.8958 29.1666 15.8333 29.0417 15.7917 28.9167C15.7292 28.7917 15.6875 28.6667 15.6667 28.5417C15.6458 28.3958 15.625 28.25 15.625 28.125C15.625 27.5833 15.8542 27.0417 16.2292 26.6458C16.4167 26.4583 16.6458 26.3125 16.9167 26.2083C17.6667 25.875 18.6042 26.0625 19.1875 26.6458C19.5625 27.0417 19.7917 27.5833 19.7917 28.125C19.7917 28.25 19.7708 28.3958 19.75 28.5417C19.7292 28.6667 19.6875 28.7917 19.625 28.9167C19.5833 29.0417 19.5208 29.1666 19.4375 29.2916C19.3542 29.3958 19.2708 29.5 19.1875 29.6041C18.7917 29.9791 18.25 30.2083 17.7083 30.2083Z" fill="#B5838D"/>
<path d="M25 30.2084C24.4583 30.2084 23.9166 29.9792 23.5208 29.6042C23.1458 29.2083 22.9166 28.6875 22.9166 28.125C22.9166 27.8542 22.9791 27.5833 23.0833 27.3333C23.1875 27.0833 23.3333 26.8542 23.5208 26.6459C24.2916 25.875 25.6875 25.875 26.4791 26.6459C26.8541 27.0417 27.0833 27.5834 27.0833 28.125C27.0833 28.25 27.0625 28.3959 27.0416 28.5417C27.0208 28.6667 26.9791 28.7917 26.9166 28.9167C26.875 29.0417 26.8125 29.1667 26.7291 29.2917C26.6458 29.3959 26.5625 29.5 26.4791 29.6042C26.0833 29.9792 25.5416 30.2084 25 30.2084Z" fill="#B5838D"/>
<path d="M17.7083 37.5C17.1667 37.5 16.625 37.2708 16.2292 36.8958C15.8542 36.5 15.625 35.9583 15.625 35.4166C15.625 35.1458 15.6875 34.875 15.7917 34.625C15.8958 34.3541 16.0417 34.125 16.2292 33.9375C17 33.1667 18.4167 33.1667 19.1875 33.9375C19.5625 34.3333 19.7917 34.875 19.7917 35.4166C19.7917 35.9583 19.5625 36.5 19.1875 36.8958C18.7917 37.2708 18.25 37.5 17.7083 37.5Z" fill="#B5838D"/>
<path d="M42.7083 20.4999H7.29163C6.43746 20.4999 5.72913 19.7916 5.72913 18.9374C5.72913 18.0833 6.43746 17.3749 7.29163 17.3749H42.7083C43.5625 17.3749 44.2708 18.0833 44.2708 18.9374C44.2708 19.7916 43.5625 20.4999 42.7083 20.4999Z" fill="#B5838D"/>
<path d="M27.8542 47.3959H16.6667C9.0625 47.3959 4.6875 43.0209 4.6875 35.4167V17.7084C4.6875 10.1042 9.0625 5.72919 16.6667 5.72919H33.3333C40.9375 5.72919 45.3125 10.1042 45.3125 17.7084V27.0834C45.3125 27.9375 44.6042 28.6459 43.75 28.6459C42.8958 28.6459 42.1875 27.9375 42.1875 27.0834V17.7084C42.1875 11.75 39.2917 8.85419 33.3333 8.85419H16.6667C10.7083 8.85419 7.8125 11.75 7.8125 17.7084V35.4167C7.8125 41.375 10.7083 44.2709 16.6667 44.2709H27.8542C28.7083 44.2709 29.4167 44.9792 29.4167 45.8334C29.4167 46.6875 28.7083 47.3959 27.8542 47.3959Z" fill="#B5838D"/>
</svg>
