<svg width="30" height="31" viewBox="0 0 30 31" fill="none" xmlns="http://www.w3.org/2000/svg">
<path d="M21.8125 28.9375C20.4 28.9375 18.9125 28.6 17.375 27.95C15.875 27.3125 14.3625 26.4375 12.8875 25.375C11.425 24.3 10.0125 23.1 8.675 21.7875C7.35 20.45 6.15 19.0375 5.0875 17.5875C4.0125 16.0875 3.15 14.5875 2.5375 13.1375C1.8875 11.5875 1.5625 10.0875 1.5625 8.675C1.5625 7.7 1.7375 6.775 2.075 5.9125C2.425 5.025 2.9875 4.2 3.75 3.4875C4.7125 2.5375 5.8125 2.0625 6.9875 2.0625C7.475 2.0625 7.975 2.175 8.4 2.375C8.8875 2.6 9.3 2.9375 9.6 3.3875L12.5 7.475C12.7625 7.8375 12.9625 8.1875 13.1 8.5375C13.2625 8.9125 13.35 9.2875 13.35 9.65C13.35 10.125 13.2125 10.5875 12.95 11.025C12.7625 11.3625 12.475 11.725 12.1125 12.0875L11.2625 12.975C11.275 13.0125 11.2875 13.0375 11.3 13.0625C11.45 13.325 11.75 13.775 12.325 14.45C12.9375 15.15 13.5125 15.7875 14.0875 16.375C14.825 17.1 15.4375 17.675 16.0125 18.15C16.725 18.75 17.1875 19.05 17.4625 19.1875L17.4375 19.25L18.35 18.35C18.7375 17.9625 19.1125 17.675 19.475 17.4875C20.1625 17.0625 21.0375 16.9875 21.9125 17.35C22.2375 17.4875 22.5875 17.675 22.9625 17.9375L27.1125 20.8875C27.575 21.2 27.9125 21.6 28.1125 22.075C28.3 22.55 28.3875 22.9875 28.3875 23.425C28.3875 24.025 28.25 24.625 27.9875 25.1875C27.725 25.75 27.4 26.2375 26.9875 26.6875C26.275 27.475 25.5 28.0375 24.6 28.4C23.7375 28.75 22.8 28.9375 21.8125 28.9375ZM6.9875 3.9375C6.3 3.9375 5.6625 4.2375 5.05 4.8375C4.475 5.375 4.075 5.9625 3.825 6.6C3.5625 7.25 3.4375 7.9375 3.4375 8.675C3.4375 9.8375 3.7125 11.1 4.2625 12.4C4.825 13.725 5.6125 15.1 6.6125 16.475C7.6125 17.85 8.75 19.1875 10 20.45C11.25 21.6875 12.6 22.8375 13.9875 23.85C15.3375 24.8375 16.725 25.6375 18.1 26.2125C20.2375 27.125 22.2375 27.3375 23.8875 26.65C24.525 26.3875 25.0875 25.9875 25.6 25.4125C25.8875 25.1 26.1125 24.7625 26.3 24.3625C26.45 24.05 26.525 23.725 26.525 23.4C26.525 23.2 26.4875 23 26.3875 22.775C26.35 22.7 26.275 22.5625 26.0375 22.4L21.8875 19.45C21.6375 19.275 21.4125 19.15 21.2 19.0625C20.925 18.95 20.8125 18.8375 20.3875 19.1C20.1375 19.225 19.9125 19.4125 19.6625 19.6625L18.7125 20.6C18.225 21.075 17.475 21.1875 16.9 20.975L16.5625 20.825C16.05 20.55 15.45 20.125 14.7875 19.5625C14.1875 19.05 13.5375 18.45 12.75 17.675C12.1375 17.05 11.525 16.3875 10.8875 15.65C10.3 14.9625 9.875 14.375 9.6125 13.8875L9.4625 13.5125C9.3875 13.225 9.3625 13.0625 9.3625 12.8875C9.3625 12.4375 9.525 12.0375 9.8375 11.725L10.775 10.75C11.025 10.5 11.2125 10.2625 11.3375 10.05C11.4375 9.8875 11.475 9.75 11.475 9.625C11.475 9.525 11.4375 9.375 11.375 9.225C11.2875 9.025 11.15 8.8 10.975 8.5625L8.075 4.4625C7.95 4.2875 7.8 4.1625 7.6125 4.075C7.4125 3.9875 7.2 3.9375 6.9875 3.9375ZM17.4375 19.2625L17.2375 20.1125L17.575 19.2375C17.5125 19.225 17.4625 19.2375 17.4375 19.2625Z" fill="#292D32"/>
<path d="M23.125 12.6875C22.6125 12.6875 22.1875 12.2625 22.1875 11.75C22.1875 11.3 21.7375 10.3625 20.9875 9.5625C20.25 8.775 19.4375 8.3125 18.75 8.3125C18.2375 8.3125 17.8125 7.8875 17.8125 7.375C17.8125 6.8625 18.2375 6.4375 18.75 6.4375C19.9625 6.4375 21.2375 7.0875 22.35 8.275C23.3875 9.3875 24.0625 10.75 24.0625 11.75C24.0625 12.2625 23.6375 12.6875 23.125 12.6875Z" fill="#292D32"/>
<path d="M27.5 12.6875C26.9875 12.6875 26.5625 12.2625 26.5625 11.75C26.5625 7.4375 23.0625 3.9375 18.75 3.9375C18.2375 3.9375 17.8125 3.5125 17.8125 3C17.8125 2.4875 18.2375 2.0625 18.75 2.0625C24.0875 2.0625 28.4375 6.4125 28.4375 11.75C28.4375 12.2625 28.0125 12.6875 27.5 12.6875Z" fill="#292D32"/>
</svg>
