<svg width="50" height="50" viewBox="0 0 50 50" fill="none" xmlns="http://www.w3.org/2000/svg">
<path d="M27.9167 36.2917H22.6876C19.2709 36.2917 16.5001 33.4167 16.5001 29.875C16.5001 29.0208 17.2084 28.3125 18.0626 28.3125C18.9167 28.3125 19.6251 29.0208 19.6251 29.875C19.6251 31.6875 21.0001 33.1667 22.6876 33.1667H27.9167C29.2709 33.1667 30.3959 31.9583 30.3959 30.5C30.3959 28.6875 29.7501 28.3333 28.6876 27.9583L20.2917 25C18.6667 24.4375 16.4792 23.2292 16.4792 19.5C16.4792 16.2917 19.0001 13.7083 22.0834 13.7083H27.3126C30.7292 13.7083 33.5001 16.5833 33.5001 20.125C33.5001 20.9792 32.7917 21.6875 31.9376 21.6875C31.0834 21.6875 30.3751 20.9792 30.3751 20.125C30.3751 18.3125 29.0001 16.8333 27.3126 16.8333H22.0834C20.7292 16.8333 19.6042 18.0417 19.6042 19.5C19.6042 21.3125 20.2501 21.6667 21.3126 22.0417L29.7084 25C31.3334 25.5625 33.5209 26.7708 33.5209 30.5C33.5001 33.6875 31.0001 36.2917 27.9167 36.2917Z" fill="#B5838D"/>
<path d="M25 39.0625C24.1458 39.0625 23.4375 38.3542 23.4375 37.5V12.5C23.4375 11.6458 24.1458 10.9375 25 10.9375C25.8542 10.9375 26.5625 11.6458 26.5625 12.5V37.5C26.5625 38.3542 25.8542 39.0625 25 39.0625Z" fill="#B5838D"/>
<path d="M25.0001 47.3958C12.6459 47.3958 2.60425 37.3542 2.60425 25C2.60425 12.6458 12.6459 2.60416 25.0001 2.60416C37.3542 2.60416 47.3959 12.6458 47.3959 25C47.3959 37.3542 37.3542 47.3958 25.0001 47.3958ZM25.0001 5.72916C14.3751 5.72916 5.72925 14.375 5.72925 25C5.72925 35.625 14.3751 44.2708 25.0001 44.2708C35.6251 44.2708 44.2709 35.625 44.2709 25C44.2709 14.375 35.6251 5.72916 25.0001 5.72916Z" fill="#B5838D"/>
</svg>
