<svg width="50" height="50" viewBox="0 0 50 50" fill="none" xmlns="http://www.w3.org/2000/svg">
<path d="M37.5 20.8334C39.1046 20.8326 40.6753 21.2951 42.0234 22.1653C43.3716 23.0355 44.4398 24.2764 45.0998 25.739C45.7599 27.2016 45.9836 28.8236 45.7441 30.4103C45.5047 31.9969 44.8122 33.4807 43.75 34.6834V44.2667C43.7505 44.5342 43.6823 44.7974 43.552 45.031C43.4217 45.2646 43.2336 45.4609 43.0057 45.6009C42.7778 45.741 42.5177 45.8203 42.2504 45.831C41.9831 45.8418 41.7176 45.7838 41.4791 45.6625L41.2916 45.548L37.5 42.8979L33.7083 45.548C33.4893 45.7008 33.2348 45.7951 32.9691 45.8216C32.7033 45.8482 32.4352 45.8061 32.1903 45.6996C31.9454 45.593 31.7319 45.4255 31.5702 45.2129C31.4085 45.0003 31.304 44.7499 31.2666 44.4855L31.252 44.2667V34.6792C30.1912 33.4765 29.4999 31.9934 29.2612 30.4076C29.0224 28.8218 29.2462 27.2008 29.9058 25.7391C30.5654 24.2774 31.6327 23.037 32.9798 22.1669C34.3268 21.2967 35.8963 20.8337 37.5 20.8334V20.8334ZM40.625 36.8959C39.6321 37.2974 38.5709 37.5032 37.5 37.5021C36.429 37.5032 35.3678 37.2974 34.375 36.8959V41.2688L36.6062 39.7125C36.8346 39.5525 37.1017 39.4564 37.3798 39.4345C37.6578 39.4125 37.9367 39.4653 38.1875 39.5875L38.3958 39.7125L40.625 41.2688V36.8959V36.8959ZM40.1041 6.25836C41.5631 6.25829 42.9671 6.8148 44.0297 7.81439C45.0924 8.81397 45.7337 10.1813 45.8229 11.6375L45.8333 11.9875L45.8354 22.9167C44.9905 21.7919 43.9277 20.8488 42.7104 20.1438L42.7083 11.9875C42.7086 11.3428 42.4697 10.7209 42.0379 10.2422C41.6061 9.76344 41.0121 9.46188 40.3708 9.39586L40.1041 9.38336H9.89579C9.25109 9.38307 8.62919 9.62193 8.15045 10.0537C7.6717 10.4855 7.37014 11.0795 7.30413 11.7209L7.29163 11.9875V31.7792C7.29163 33.1271 8.31663 34.2375 9.62913 34.3688L9.89579 34.3834L28.4833 34.3854L28.7395 34.8084L29.0187 35.2167L29.1666 35.4125L29.1645 37.5084H9.89579C8.43652 37.5084 7.03224 36.9516 5.96949 35.9516C4.90675 34.9516 4.26566 33.5837 4.17704 32.1271L4.16663 31.7792V11.9875C4.16655 10.5286 4.72307 9.1246 5.72265 8.06191C6.72224 6.99922 8.08959 6.35791 9.54579 6.26878L9.89579 6.25836H40.1041V6.25836ZM37.5 23.9584C36.1183 23.9584 34.7933 24.5072 33.8164 25.4842C32.8394 26.4611 32.2906 27.7861 32.2906 29.1677C32.2906 30.5494 32.8394 31.8744 33.8164 32.8513C34.7933 33.8283 36.1183 34.3771 37.5 34.3771C38.8816 34.3771 40.2066 33.8283 41.1835 32.8513C42.1605 31.8744 42.7093 30.5494 42.7093 29.1677C42.7093 27.7861 42.1605 26.4611 41.1835 25.4842C40.2066 24.5072 38.8816 23.9584 37.5 23.9584ZM23.4375 26.0417C23.8333 26.0418 24.2144 26.1922 24.5037 26.4625C24.793 26.7327 24.9689 27.1027 24.9958 27.4977C25.0228 27.8927 24.8989 28.2831 24.6491 28.5902C24.3992 28.8973 24.0421 29.0982 23.65 29.1521L23.4375 29.1667H14.0625C13.6666 29.1666 13.2855 29.0162 12.9962 28.7459C12.707 28.4757 12.5311 28.1057 12.5041 27.7107C12.4771 27.3157 12.601 26.9253 12.8509 26.6182C13.1007 26.3111 13.4578 26.1102 13.85 26.0563L14.0625 26.0417H23.4375ZM35.9375 14.5834C36.3333 14.5835 36.7144 14.7339 37.0037 15.0041C37.293 15.2744 37.4689 15.6444 37.4958 16.0394C37.5228 16.4343 37.3989 16.8248 37.1491 17.1319C36.8992 17.439 36.5421 17.6398 36.15 17.6938L35.9375 17.7084H14.0625C13.6666 17.7082 13.2855 17.5579 12.9962 17.2876C12.707 17.0173 12.5311 16.6473 12.5041 16.2524C12.4771 15.8574 12.601 15.4669 12.8509 15.1598C13.1007 14.8527 13.4578 14.6519 13.85 14.5979L14.0625 14.5834H35.9375Z" fill="#B5838D"/>
</svg>
