<svg width="50" height="50" viewBox="0 0 50 50" fill="none" xmlns="http://www.w3.org/2000/svg">
<path d="M45.8333 25C45.8333 36.5063 36.5062 45.8334 25 45.8334C13.4937 45.8334 4.16663 36.5063 4.16663 25C4.16663 13.4938 13.4937 4.16669 25 4.16669" stroke="#B5838D" stroke-width="2" stroke-linecap="round" stroke-linejoin="round"/>
<path d="M39.5832 9.8667L39.9405 10.9667H41.0968L40.1614 11.6459L40.5187 12.7459L39.5832 12.0667L38.6478 12.7459L39.0051 11.6459L38.0697 10.9667H39.226L39.5832 9.8667Z" stroke="#B5838D" stroke-width="2"/>
<path d="M31.25 19.7917C31.25 16.3399 28.4518 13.5417 25 13.5417C21.5482 13.5417 18.75 16.3399 18.75 19.7917V32.2917C18.75 35.7435 21.5482 38.5417 25 38.5417C28.4518 38.5417 31.25 35.7435 31.25 32.2917V19.7917Z" stroke="#B5838D" stroke-width="2" stroke-linecap="round" stroke-linejoin="round"/>
<path d="M18.75 26.0417C16.6666 26.0417 13.5416 28.2479 13.5416 32.2917V42.4834M31.25 26.0417C33.3333 26.0417 36.4583 28.2479 36.4583 32.2917V42.1875" stroke="#B5838D" stroke-width="2" stroke-linecap="round" stroke-linejoin="round"/>
</svg>
