<svg width="30" height="31" viewBox="0 0 30 31" fill="none" xmlns="http://www.w3.org/2000/svg">
<rect x="1" y="1.5" width="28" height="28" rx="14" stroke="#1B1919" stroke-width="2"/>
<path d="M15 9.35542C16.988 9.35542 17.259 9.35542 18.0723 9.35542C18.7952 9.35542 19.1566 9.53614 19.4277 9.62651C19.7892 9.80723 20.0602 9.89759 20.3313 10.1687C20.6024 10.4398 20.7831 10.7108 20.8735 11.0723C20.9639 11.3434 21.0542 11.7048 21.1446 12.4277C21.1446 13.241 21.1446 13.4217 21.1446 15.5C21.1446 17.5783 21.1446 17.759 21.1446 18.5723C21.1446 19.2952 20.9639 19.6566 20.8735 19.9277C20.6928 20.2892 20.6024 20.5602 20.3313 20.8313C20.0602 21.1024 19.7892 21.2831 19.4277 21.3735C19.1566 21.4639 18.7952 21.5542 18.0723 21.6446C17.259 21.6446 17.0783 21.6446 15 21.6446C12.9217 21.6446 12.741 21.6446 11.9277 21.6446C11.2048 21.6446 10.8434 21.4639 10.5723 21.3735C10.2108 21.1928 9.93976 21.1024 9.66868 20.8313C9.39759 20.5602 9.21687 20.2892 9.12651 19.9277C9.03614 19.6566 8.94578 19.2952 8.85542 18.5723C8.85542 17.759 8.85542 17.5783 8.85542 15.5C8.85542 13.4217 8.85542 13.241 8.85542 12.4277C8.85542 11.7048 9.03614 11.3434 9.12651 11.0723C9.30723 10.7108 9.39759 10.4398 9.66868 10.1687C9.93976 9.89759 10.2108 9.71687 10.5723 9.62651C10.8434 9.53614 11.2048 9.44578 11.9277 9.35542C12.741 9.35542 13.012 9.35542 15 9.35542ZM15 8C12.9217 8 12.741 8 11.9277 8C11.1145 8 10.5723 8.18072 10.1205 8.36145C9.66868 8.54217 9.21687 8.81325 8.76506 9.26506C8.31325 9.71687 8.13253 10.0783 7.86145 10.6205C7.68072 11.0723 7.59036 11.6145 7.5 12.4277C7.5 13.241 7.5 13.512 7.5 15.5C7.5 17.5783 7.5 17.759 7.5 18.5723C7.5 19.3855 7.68072 19.9277 7.86145 20.3795C8.04217 20.8313 8.31325 21.2831 8.76506 21.7349C9.21687 22.1867 9.57831 22.3675 10.1205 22.6386C10.5723 22.8193 11.1145 22.9096 11.9277 23C12.741 23 13.012 23 15 23C16.988 23 17.259 23 18.0723 23C18.8855 23 19.4277 22.8193 19.8795 22.6386C20.3313 22.4578 20.7831 22.1867 21.2349 21.7349C21.6867 21.2831 21.8675 20.9217 22.1386 20.3795C22.3193 19.9277 22.4096 19.3855 22.5 18.5723C22.5 17.759 22.5 17.488 22.5 15.5C22.5 13.512 22.5 13.241 22.5 12.4277C22.5 11.6145 22.3193 11.0723 22.1386 10.6205C21.9578 10.1687 21.6867 9.71687 21.2349 9.26506C20.7831 8.81325 20.4217 8.63253 19.8795 8.36145C19.4277 8.18072 18.8855 8.09036 18.0723 8C17.259 8 17.0783 8 15 8Z" fill="#1B1919"/>
<path d="M15 11.6145C12.8313 11.6145 11.1145 13.3313 11.1145 15.5C11.1145 17.6687 12.8313 19.3855 15 19.3855C17.1687 19.3855 18.8855 17.6687 18.8855 15.5C18.8855 13.3313 17.1687 11.6145 15 11.6145ZM15 18.0301C13.6446 18.0301 12.4699 16.9458 12.4699 15.5C12.4699 14.1446 13.5542 12.9699 15 12.9699C16.3554 12.9699 17.5301 14.0542 17.5301 15.5C17.5301 16.8554 16.3554 18.0301 15 18.0301Z" fill="#1B1919"/>
<path d="M18.9759 12.4277C19.475 12.4277 19.8795 12.0231 19.8795 11.5241C19.8795 11.025 19.475 10.6205 18.9759 10.6205C18.4769 10.6205 18.0723 11.025 18.0723 11.5241C18.0723 12.0231 18.4769 12.4277 18.9759 12.4277Z" fill="#1B1919"/>
</svg>
