<svg width="80" height="81" viewBox="0 0 80 81" fill="none" xmlns="http://www.w3.org/2000/svg">
<g clip-path="url(#clip0_95_262)">
<path d="M34.5852 1.08331C34.5852 1.14719 34.7366 1.29888 34.9119 1.43461C35.4138 1.80187 36.0432 2.53641 36.2982 3.04739C36.5611 3.5903 36.601 4.30886 36.3938 4.70806C36.1787 5.09928 35.7405 5.49848 35.2704 5.73002C34.7366 5.99349 34.7047 5.99349 34.2187 5.738C33.4538 5.32283 32.3065 4.77193 31.8364 4.59628C31.5735 4.49249 31.2866 4.38071 31.199 4.34878C29.8923 3.80587 27.5738 3.51046 26.1237 3.71006C24.8489 3.87772 22.7534 4.43661 22.5303 4.66016C22.4825 4.70806 22.5702 4.77992 22.7614 4.86774C24.0521 5.43461 24.586 5.80187 25.0879 6.45657C25.3429 6.77592 25.4146 7.47054 25.2473 7.94958C25.1038 8.37273 24.5621 9.05138 24.2673 9.19509C24.0123 9.31485 23.9406 9.31485 23.2952 9.19509C21.9089 8.93162 21.1838 8.88371 19.6142 8.91565C17.5586 8.97153 16.6424 9.17113 15.0249 9.94559C13.9892 10.4406 12.4992 11.4146 12.2204 11.7739C12.0929 11.9336 12.2602 11.9975 12.8259 12.0055C13.8059 12.0214 14.8656 12.4286 15.3277 12.9715C15.7181 13.4266 15.8297 13.8817 15.7022 14.4725C15.495 15.4865 15.0887 15.9256 14.3796 15.9256C13.9971 15.9256 12.4275 16.1971 11.7981 16.3727C10.1568 16.8358 8.69874 17.5224 7.66297 18.3208C6.57142 19.1512 5.34442 20.4845 4.68312 21.5304C4.49986 21.8258 4.49986 22.0254 4.69108 21.9536C5.08946 21.7859 5.86231 21.6661 6.52361 21.6661C7.20085 21.6582 7.32036 21.6821 7.71874 21.8897C8.27646 22.1691 8.57923 22.5843 8.69874 23.231C8.79435 23.758 8.68281 24.5484 8.48362 24.716C8.41988 24.764 7.91793 25.0354 7.35223 25.3069C6.4041 25.7699 4.73092 26.8238 4.18913 27.2949C3.07368 28.2689 2.11758 29.4665 1.46424 30.6961C0.96229 31.6302 0.237246 33.6661 0.356759 33.7859C0.388629 33.8178 0.508142 33.7779 0.627654 33.7061C0.747167 33.6262 1.17741 33.4027 1.58376 33.2031C2.21319 32.8917 2.41238 32.8278 2.93823 32.7959C3.46409 32.756 3.6075 32.7799 3.8784 32.9156C4.52377 33.243 5.02572 34.1133 5.02572 34.8957C5.02572 35.247 5.00979 35.2789 4.16523 36.1172C3.14539 37.1312 2.97807 37.3228 2.31677 38.1931C1.72717 38.9675 1.65546 39.0793 1.13758 40.1172C0.603752 41.1791 0.324889 42.1133 0.0460259 43.7979C-0.00974669 44.1572 -0.0177142 46.3528 0.0380584 46.4087C0.0619609 46.4246 0.412531 46.1053 0.818874 45.6981C1.70327 44.8039 2.26099 44.4765 2.95417 44.4765C3.20913 44.4685 3.51189 44.5324 3.67921 44.6043C4.26881 44.8917 5.01775 45.9616 4.91418 46.3847C4.89027 46.4725 4.67515 46.9196 4.42816 47.3667C4.18913 47.8139 3.98994 48.1891 3.98994 48.2131C3.98994 48.237 3.88637 48.4765 3.75889 48.756C3.05775 50.2969 2.63547 52.1252 2.63547 53.6182C2.63547 54.9276 3.01791 56.9077 3.51986 58.233L3.64734 58.5843L3.77482 58.3927C3.84653 58.2889 3.97401 58.0095 4.06165 57.7859C4.49986 56.6681 5.31255 55.8298 6.09337 55.6781C6.45987 55.6063 7.00963 55.718 7.35223 55.9256C7.73467 56.1572 8.21272 56.6442 8.26053 56.8598C8.2924 56.9715 8.26053 57.3787 8.18882 57.754C7.96573 58.9196 7.88606 59.8298 7.88606 61.0753C7.87809 63.1033 8.22866 64.6123 9.08915 66.265C9.57517 67.2151 9.68672 67.3907 10.3002 68.2131C10.9296 69.0514 10.9934 69.0514 11.0014 68.261C11.0093 66.9196 11.6786 65.6103 12.4913 65.3388C12.9454 65.1951 13.6864 65.2829 14.2282 65.5544C14.7939 65.8338 14.8258 65.9137 15.017 67.3029C15.3915 70.0095 16.244 72.0853 17.71 73.8418C18.7537 75.0873 20.9687 76.8278 20.9607 76.3807C20.9607 76.3488 20.889 76.0614 20.8014 75.734C20.6102 75.0155 20.5942 74.1532 20.7695 73.5624C20.9368 73.0035 21.5025 72.4206 21.9646 72.3488C22.4905 72.261 23.1837 72.2849 23.4785 72.4127C23.7095 72.5085 23.8051 72.6362 24.0681 73.1871C24.4186 73.9296 24.8808 74.7839 25.2154 75.3268C25.9882 76.5644 27.2471 77.9456 28.243 78.6402C28.49 78.8159 28.745 79.0075 28.8087 79.0554C28.8645 79.1113 28.9362 79.1592 28.9522 79.1592C28.9681 79.1592 29.231 79.2949 29.5338 79.4626C30.2509 79.8538 30.952 80.1492 31.8683 80.4366C32.92 80.7719 32.9598 80.764 32.6571 80.2769C32.3383 79.7739 32.2905 79.6861 32.0834 79.263C31.6372 78.3448 31.6452 77.3867 32.0993 76.7719C32.3623 76.4206 33.167 76.0454 33.7725 75.9895L34.2267 75.9496L35.3023 77.0274C36.5213 78.241 37.5332 79.0394 38.6805 79.6781C39.6207 80.2051 41.2779 80.74 42.5129 80.9157C43.0865 80.9955 45.421 81.0274 45.421 80.9556C45.421 80.9316 45.0864 80.5803 44.6721 80.1731C43.3096 78.8318 43.0786 77.7859 43.947 76.8518C44.6721 76.0773 45.2696 75.9496 46.0425 76.3967C46.4249 76.6282 47.2057 77.0115 48.0901 77.4107C48.4805 77.5863 49.9864 78.0414 50.5999 78.1771C51.5161 78.3687 53.6674 78.3687 54.743 78.1771C55.6513 78.0095 57.2448 77.5145 57.3802 77.3548C57.4519 77.267 57.4121 77.219 57.1651 77.1153C56.3843 76.7959 56.1373 76.6681 55.7549 76.3887C55.221 75.9975 55.0059 75.758 54.8147 75.3508C54.4641 74.5923 54.6793 73.754 55.4043 73.0674C55.8106 72.6841 55.9541 72.6522 56.711 72.8039C58.1132 73.0753 58.5913 73.1232 60.0015 73.1232C61.5472 73.1232 62.2245 73.0354 63.3877 72.6761C64.6068 72.3009 65.8975 71.6462 67.1723 70.744C67.8814 70.241 67.9691 70.0574 67.5069 70.0574C66.9731 70.0574 65.8816 69.8178 65.4274 69.6023C64.5908 69.2111 64.1526 68.5085 64.2403 67.7101C64.296 67.2151 64.7263 66.3208 64.9573 66.233C65.0609 66.1931 65.5868 66.0973 66.1365 66.0254C66.6863 65.9536 67.2201 65.8658 67.3317 65.8338C67.4432 65.7939 67.73 65.722 67.9691 65.6662C69.1961 65.4027 70.933 64.6921 71.7536 64.1173C72.2874 63.742 73.14 63.0234 73.6579 62.5045C74.2554 61.8977 75.4585 60.3408 75.4585 60.1731C75.4585 60.0534 75.3151 60.0614 74.6618 60.245C74.4626 60.2929 73.9447 60.3408 73.5065 60.3408C72.8611 60.3408 72.638 60.3089 72.3353 60.1731C71.5783 59.8298 71.172 59.0634 71.2676 58.1452C71.3234 57.5624 71.4509 57.2829 71.7138 57.1472C71.8253 57.0913 72.1839 56.9157 72.5105 56.756C75.7453 55.1751 77.6177 53.3548 78.8686 50.5763C79.1475 49.9536 79.6813 48.4047 79.6813 48.2131C79.6813 48.0614 79.5618 48.0693 79.4343 48.229C79.3785 48.3009 79.259 48.3887 79.1634 48.4286C79.0758 48.4685 78.8447 48.5963 78.6535 48.7081C77.5062 49.3867 76.1756 49.3947 75.5701 48.724C75.2514 48.3807 75.0362 47.8378 74.9964 47.2869L74.9566 46.752L76.0322 45.6821C78.773 42.9436 80 40.1731 80 36.732C80 35.9895 79.9681 35.6382 79.9044 35.5983C79.8486 35.5663 79.7769 35.5983 79.7291 35.6861C79.6813 35.7739 79.3626 36.1172 79.028 36.4606C77.8089 37.6901 76.6696 37.8817 75.7852 37.0035C75.4107 36.6362 75.0601 36.0214 75.0601 35.75C75.0601 35.6701 75.3629 35.0154 75.7214 34.2889C76.4305 32.8757 76.8767 31.6622 77.1397 30.4007C77.2592 29.7939 77.299 29.3308 77.299 28.3408C77.291 27.6382 77.2751 26.9436 77.2432 26.7839C77.0281 25.4186 76.4545 23.5504 76.2632 23.5504C76.1995 23.5504 76.1119 23.6941 76.0561 23.8697C75.7613 24.8757 75.0362 25.8258 74.2953 26.1931C73.9288 26.3687 73.7933 26.4007 73.4587 26.3608C72.9806 26.3049 72.4229 26.0015 72.0165 25.5703C71.6819 25.227 71.6421 24.9556 71.8014 24.229C72.16 22.5923 72.1998 19.734 71.8731 18.4007C71.5305 16.9955 71.1401 16.0614 70.3513 14.7919C69.8813 14.0254 69.1642 13.0514 69.0686 13.0514C69.0367 13.0514 69.0048 13.3148 69.0048 13.6262C69.0048 14.2729 68.7977 15.1512 68.5348 15.6701C67.977 16.7719 66.9412 17.0514 65.7382 16.4446C65.284 16.2131 65.1008 15.9815 65.1008 15.6382C65.1008 14.9915 64.5191 12.1891 64.304 11.7819C64.2642 11.7101 64.1606 11.4466 64.0729 11.1911C63.3877 9.27493 61.7385 7.27094 59.5474 5.72204C59.3402 5.57832 59.0454 5.48251 59.0454 5.56236C59.0454 5.57832 59.1172 5.92962 59.2048 6.34479C59.4996 7.75797 59.3721 8.55637 58.7746 9.17912C58.3682 9.61026 57.7945 9.80187 57.1412 9.73002C56.3285 9.65018 56.3126 9.62623 55.7389 8.46854C55.1653 7.31086 55.2051 7.38271 54.5677 6.42463C54.0179 5.5863 53.9462 5.4905 53.3487 4.84379C52.3527 3.742 51.3966 3.02343 50.0501 2.35278C48.8709 1.76994 47.3651 1.25098 47.2296 1.3867C47.1898 1.42663 47.2854 1.65018 47.4368 1.8897C47.9945 2.75198 48.1618 3.27094 48.1698 4.07732C48.1698 4.77193 48.1539 4.82782 47.9228 5.15517C47.5882 5.61824 46.9348 5.95358 46.2576 6.00946L45.7477 6.04938L44.927 5.20307C44.1382 4.39668 43.6921 3.9895 43.1184 3.55038C42.975 3.4386 42.8156 3.31086 42.7678 3.27094C42.4412 2.99149 41.4054 2.36874 40.768 2.07333C39.2302 1.34679 37.9953 1.07533 36.0034 1.01944C34.8242 0.979523 34.5852 0.995483 34.5852 1.08331ZM23.2713 28.4206C25.8687 28.7719 27.3188 29.8737 28.1395 32.1332C28.3068 32.5883 28.3307 32.7879 28.3307 33.8099C28.3307 35.2709 28.1634 35.8937 27.4782 36.9636C26.7213 38.1372 25.0401 39.0713 23.2474 39.3109C22.2993 39.4386 20.6022 39.4226 20.4907 39.2869C20.3632 39.1352 20.3791 35.8378 20.5066 35.742C20.5624 35.7021 20.897 35.6382 21.2555 35.5823C22.2515 35.4466 22.6977 35.1671 22.9207 34.5524C23.1598 33.8817 22.9686 33.0354 22.5064 32.716C22.0045 32.3727 21.7734 32.3328 20.3632 32.3328H19.0087L18.9689 38.9995L18.929 45.6661H16.2599H13.5908L13.5669 37.1632C13.5589 32.4845 13.5669 28.5803 13.5908 28.4765L13.6306 28.3009H18.0367C21.399 28.3009 22.6339 28.3328 23.2713 28.4206ZM35.6608 28.4765C35.6847 28.5803 35.6927 32.4845 35.6847 37.1632L35.6608 45.6661H33.0315H30.4022L30.3783 37.0833C30.3704 32.3648 30.3783 28.4526 30.4022 28.3967C30.4261 28.3248 31.0317 28.3009 33.0236 28.3009H35.621L35.6608 28.4765ZM44.0665 34.8238C44.0904 39.1512 44.1303 41.3308 44.186 41.3867C44.2418 41.4426 45.429 41.4825 47.5722 41.4905L50.8787 41.5145V43.5903V45.6661H44.8234H38.7681L38.7442 37.0833C38.7363 32.3648 38.7442 28.4526 38.7681 28.3967C38.792 28.3168 39.3657 28.3009 41.4133 28.3168L44.0267 28.3408L44.0665 34.8238ZM62.3759 28.4047C62.4237 28.4526 62.4874 28.6123 62.5113 28.74C62.5432 28.8757 62.6707 29.2989 62.7981 29.6981C62.9177 30.0893 63.1726 30.9037 63.3479 31.4945C63.5312 32.0853 63.7224 32.716 63.7861 32.8917C63.8419 33.0673 64.0809 33.8019 64.304 34.5284C64.5351 35.255 64.7821 36.0534 64.8617 36.3089C64.9494 36.5644 64.9972 36.8198 64.9653 36.8837C64.9334 36.9875 64.551 37.0035 62.5591 37.0035C60.7744 37.0035 60.1609 36.9795 60.0573 36.8997C59.9776 36.8438 59.8263 36.4845 59.7227 36.0853C59.6111 35.6861 59.4359 35.0474 59.3323 34.6642C59.2287 34.2729 59.1092 33.9216 59.0614 33.8737C58.9419 33.754 58.8303 34.0174 58.5993 34.8717C58.4957 35.2789 58.2806 36.0534 58.1212 36.6043C57.7069 38.0574 57.6591 38.2809 57.7627 38.3847C57.8185 38.4406 59.0933 38.4805 61.6907 38.5125L65.539 38.5604L65.8019 39.3588C65.9453 39.7979 66.2799 40.8358 66.5349 41.6741C66.7899 42.5045 67.0687 43.4067 67.1564 43.6701C67.5149 44.748 67.73 45.5544 67.6902 45.6262C67.6344 45.722 62.4794 45.738 62.344 45.6422C62.2962 45.6103 62.2165 45.4426 62.1767 45.2669C61.9058 44.261 61.8102 43.9336 61.6668 43.4306C61.5711 43.1192 61.4516 42.744 61.3959 42.5923L61.2923 42.3129L59.157 42.2889C57.9778 42.2809 56.9341 42.2889 56.8384 42.3129C56.711 42.3448 56.6313 42.4486 56.5676 42.6961C56.5197 42.8797 56.448 43.1033 56.4162 43.1911C56.3046 43.4865 55.9461 44.7001 55.8505 45.1073C55.8027 45.3228 55.6991 45.5544 55.6354 45.6023C55.476 45.73 51.4365 45.754 51.3568 45.6262C51.3329 45.5863 51.5241 44.8757 51.787 44.0534C52.042 43.223 52.4085 42.0494 52.5918 41.4346C52.775 40.8198 52.9901 40.1172 53.0698 39.8777C53.2371 39.3827 53.7311 37.7779 54.1056 36.5244C54.241 36.0614 54.4402 35.4306 54.5438 35.1272C54.6474 34.8158 54.8386 34.2091 54.974 33.7699C55.1015 33.3308 55.3565 32.4845 55.5397 31.8937C55.723 31.3029 55.978 30.4725 56.1054 30.0574C56.464 28.8837 56.5915 28.5085 56.6791 28.3967C56.7906 28.253 62.2564 28.253 62.3759 28.4047ZM43.6522 50.9117C43.7638 51.0234 43.7797 51.758 43.6761 51.9176C43.6363 51.9815 43.5008 52.0135 43.3415 51.9975C43.0706 51.9735 43.0706 51.9735 43.0467 51.5105C43.0308 51.231 43.0626 50.9995 43.1184 50.9276C43.2299 50.7919 43.5247 50.7839 43.6522 50.9117ZM45.6441 54.3608C45.66 57.1153 45.6441 57.8817 45.5644 57.9376C45.4051 58.0334 45.2059 58.0095 45.0704 57.8817C44.9669 57.7699 44.9509 57.3069 44.943 54.4406C44.943 52.2051 44.9669 51.0793 45.0226 50.9675C45.0943 50.8478 45.174 50.8159 45.3652 50.8318L45.6202 50.8558L45.6441 54.3608ZM33.6132 52.6043C34.2904 52.7879 34.7286 53.1472 35.0075 53.754C35.1668 54.0973 35.1828 54.2809 35.2067 56.0214C35.2385 57.8977 35.2385 57.9057 35.0632 57.9616C34.9676 57.9935 34.8083 57.9935 34.7047 57.9695L34.5214 57.9216L34.4896 56.1093C34.4657 54.4486 34.4497 54.265 34.3063 54.0095C34.0354 53.5544 33.5733 53.2829 33.0634 53.2749C32.2746 53.259 31.7886 53.4905 31.4301 54.0494C31.2946 54.257 31.2707 54.4805 31.2388 56.0693C31.199 58.0254 31.1831 58.0813 30.7289 57.9695L30.5218 57.9216L30.5377 55.3029L30.5616 52.6921H30.8325C31.0795 52.6921 31.1193 52.724 31.1751 52.9476C31.2548 53.251 31.3344 53.2749 31.5496 53.0594C31.7647 52.8438 32.0196 52.7081 32.3941 52.5963C32.8323 52.4765 33.1192 52.4765 33.6132 52.6043ZM40.1863 52.7719C40.3298 52.8278 40.5847 53.0115 40.76 53.1632C40.9273 53.3228 41.0946 53.4266 41.1265 53.3947C41.1584 53.3548 41.1982 53.1871 41.2142 53.0115C41.2381 52.724 41.262 52.6921 41.4771 52.6681C41.8994 52.6123 41.9153 52.6921 41.9153 55.3109C41.9153 56.7959 41.8834 57.754 41.8356 57.8498C41.74 58.0175 41.4372 58.0494 41.2938 57.9057C41.2381 57.8498 41.1982 57.6901 41.1982 57.5544C41.1982 57.4107 41.1664 57.2749 41.1345 57.251C41.0946 57.227 40.9194 57.3468 40.7441 57.5065C40.2899 57.9296 39.7481 58.1053 38.9833 58.0733C38.1546 58.0334 37.4615 57.6981 36.9117 57.0753C36.4337 56.5404 36.2982 56.1252 36.3062 55.247C36.3062 54.7121 36.346 54.5364 36.5372 54.1452C37.2065 52.7879 38.8 52.1891 40.1863 52.7719ZM48.9267 52.732C49.2852 52.9157 49.5482 53.2749 49.6119 53.6741C49.6677 54.0254 49.58 54.0973 49.2295 54.0334C49.094 54.0095 48.9665 53.8897 48.8789 53.7141C48.4885 52.9795 47.4129 53.1791 47.4129 53.9775C47.4129 54.3767 47.7395 54.6961 48.3132 54.8797C49.3968 55.223 49.7394 55.5584 49.7872 56.3568C49.8191 56.9636 49.588 57.4426 49.094 57.8019C48.8152 57.9935 48.6638 58.0414 48.2096 58.0654C47.7236 58.0973 47.6121 58.0733 47.3013 57.8897C46.9269 57.6741 46.6958 57.3628 46.5365 56.8598C46.4647 56.6202 46.4647 56.5324 46.5365 56.4446C46.7516 56.1811 47.1659 56.3648 47.2854 56.7799C47.389 57.0993 47.7874 57.3628 48.1857 57.3628C48.9586 57.3628 49.3888 56.4526 48.8709 55.9336C48.7435 55.8139 48.4726 55.6542 48.2495 55.5743C47.2774 55.223 46.9747 55.0314 46.7994 54.6242C46.6639 54.3208 46.6719 53.6502 46.8074 53.3787C46.9587 53.0913 47.4448 52.6681 47.6758 52.6202C47.7714 52.5963 47.9228 52.5644 48.0104 52.5404C48.2415 52.4925 48.608 52.5723 48.9267 52.732ZM43.7 52.7799C43.7239 52.8518 43.7478 54.0095 43.7478 55.3588C43.7478 57.9376 43.7399 58.0015 43.3893 58.0015C43.0387 58.0015 43.0308 57.9376 43.0308 55.2869C43.0308 53.8977 43.0547 52.732 43.0865 52.7081C43.1901 52.5963 43.6522 52.6522 43.7 52.7799Z" fill="#FFFBFA"/>
<path d="M38.728 53.2668C38.6164 53.2907 38.497 53.3386 38.4571 53.3786C38.4093 53.4185 38.3217 53.4504 38.242 53.4504C38.0429 53.4504 37.3897 54.0652 37.1985 54.4404C36.9595 54.9035 36.9515 55.7658 37.1905 56.2049C37.7481 57.2588 39.0386 57.674 40.0822 57.1311C40.9426 56.6919 41.4046 55.6061 41.1098 54.7199C40.9983 54.3925 40.4327 53.6101 40.3053 53.6101C40.2575 53.6101 40.1539 53.5622 40.0902 53.4983C40.0185 53.4345 39.7715 53.3466 39.5405 53.2987C39.1103 53.2109 39.0705 53.2109 38.728 53.2668Z" fill="#FFFBFA"/>
</g>
<defs>
<clipPath id="clip0_95_262">
<rect width="80" height="81" fill="white"/>
</clipPath>
</defs>
</svg>
