<svg width="81" height="81" viewBox="0 0 81 81" fill="none" xmlns="http://www.w3.org/2000/svg">
<g clip-path="url(#clip0_28_29)">
<path d="M35.0852 1.08344C35.0852 1.14731 35.2366 1.299 35.4119 1.43473C35.9138 1.80199 36.5432 2.53653 36.7982 3.04751C37.0611 3.59042 37.101 4.30898 36.8938 4.70818C36.6787 5.0994 36.2405 5.4986 35.7704 5.73014C35.2366 5.99361 35.2047 5.99361 34.7187 5.73812C33.9538 5.32295 32.8065 4.77206 32.3364 4.59641C32.0735 4.49261 31.7866 4.38084 31.699 4.3489C30.3923 3.80598 28.0738 3.51058 26.6237 3.71018C25.3489 3.87785 23.2534 4.43672 23.0303 4.66028C22.9825 4.70818 23.0702 4.78004 23.2614 4.86787C24.5521 5.43473 25.086 5.80199 25.5879 6.45669C25.8429 6.77605 25.9146 7.47066 25.7473 7.9497C25.6038 8.37286 25.0621 9.0515 24.7673 9.19521C24.5123 9.31497 24.4406 9.31497 23.7952 9.19521C22.4089 8.93174 21.6838 8.88383 20.1142 8.91577C18.0586 8.97166 17.1424 9.17126 15.5249 9.94571C14.4892 10.4407 12.9992 11.4148 12.7204 11.7741C12.5929 11.9337 12.7602 11.9976 13.3259 12.0056C14.3059 12.0216 15.3656 12.4287 15.8277 12.9717C16.2181 13.4268 16.3297 13.8818 16.2022 14.4727C15.995 15.4866 15.5887 15.9258 14.8796 15.9258C14.4971 15.9258 12.9275 16.1972 12.2981 16.3729C10.6568 16.8359 9.19874 17.5226 8.16297 18.321C7.07142 19.1513 5.84442 20.4846 5.18312 21.5305C4.99986 21.826 4.99986 22.0256 5.19108 21.9537C5.58946 21.786 6.36231 21.6663 7.02361 21.6663C7.70085 21.6583 7.82036 21.6822 8.21874 21.8898C8.77646 22.1693 9.07923 22.5844 9.19874 23.2311C9.29435 23.7581 9.18281 24.5485 8.98362 24.7162C8.91988 24.7641 8.41793 25.0355 7.85223 25.307C6.9041 25.7701 5.23092 26.824 4.68913 27.295C3.57368 28.2691 2.61758 29.4667 1.96424 30.6962C1.46229 31.6303 0.737246 33.6663 0.856759 33.786C0.888629 33.818 1.00814 33.778 1.12765 33.7062C1.24717 33.6264 1.67741 33.4028 2.08376 33.2032C2.71319 32.8918 2.91238 32.8279 3.43823 32.796C3.96409 32.7561 4.1075 32.78 4.3784 32.9158C5.02377 33.2431 5.52572 34.1134 5.52572 34.8958C5.52572 35.2471 5.50979 35.279 4.66523 36.1174C3.64539 37.1313 3.47807 37.323 2.81677 38.1932C2.22717 38.9677 2.15546 39.0794 1.63758 40.1174C1.10375 41.1792 0.824889 42.1134 0.546026 43.798C0.490253 44.1573 0.482286 46.3529 0.538058 46.4088C0.561961 46.4248 0.912531 46.1054 1.31887 45.6982C2.20327 44.804 2.76099 44.4767 3.45417 44.4767C3.70913 44.4687 4.01189 44.5325 4.17921 44.6044C4.76881 44.8918 5.51775 45.9617 5.41418 46.3848C5.39027 46.4727 5.17515 46.9198 4.92816 47.3669C4.68913 47.814 4.48994 48.1892 4.48994 48.2132C4.48994 48.2371 4.38637 48.4767 4.25889 48.7561C3.55774 50.297 3.13547 52.1254 3.13547 53.6184C3.13547 54.9278 3.51791 56.9078 4.01986 58.2331L4.14734 58.5844L4.27482 58.3928C4.34653 58.289 4.47401 58.0096 4.56165 57.786C4.99986 56.6683 5.81255 55.8299 6.59337 55.6782C6.95987 55.6064 7.50963 55.7182 7.85223 55.9258C8.23467 56.1573 8.71273 56.6443 8.76053 56.8599C8.7924 56.9717 8.76053 57.3788 8.68882 57.7541C8.46573 58.9198 8.38606 59.8299 8.38606 61.0755C8.37809 63.1034 8.72866 64.6124 9.58915 66.2651C10.0752 67.2152 10.1867 67.3908 10.8002 68.2132C11.4296 69.0515 11.4934 69.0515 11.5014 68.2611C11.5093 66.9198 12.1786 65.6104 12.9913 65.3389C13.4454 65.1952 14.1864 65.283 14.7282 65.5545C15.2939 65.8339 15.3258 65.9138 15.517 67.303C15.8915 70.0096 16.744 72.0854 18.21 73.8419C19.2537 75.0874 21.4687 76.828 21.4607 76.3808C21.4607 76.3489 21.389 76.0615 21.3014 75.7341C21.1102 75.0156 21.0942 74.1533 21.2695 73.5625C21.4368 73.0036 22.0025 72.4208 22.4646 72.3489C22.9905 72.2611 23.6837 72.285 23.9785 72.4128C24.2095 72.5086 24.3051 72.6363 24.5681 73.1872C24.9186 73.9297 25.3808 74.784 25.7154 75.327C26.4882 76.5645 27.7471 77.9457 28.743 78.6403C28.99 78.816 29.245 79.0076 29.3087 79.0555C29.3645 79.1114 29.4362 79.1593 29.4522 79.1593C29.4681 79.1593 29.731 79.295 30.0338 79.4627C30.7509 79.8539 31.452 80.1493 32.3683 80.4367C33.42 80.7721 33.4598 80.7641 33.1571 80.2771C32.8384 79.7741 32.7905 79.6862 32.5834 79.2631C32.1372 78.3449 32.1452 77.3868 32.5993 76.7721C32.8623 76.4208 33.667 76.0455 34.2725 75.9896L34.7267 75.9497L35.8023 77.0276C37.0213 78.2411 38.0332 79.0395 39.1805 79.6783C40.1207 80.2052 41.7779 80.7401 43.0129 80.9158C43.5865 80.9956 45.921 81.0276 45.921 80.9557C45.921 80.9317 45.5864 80.5804 45.1721 80.1733C43.8096 78.8319 43.5786 77.786 44.447 76.8519C45.1721 76.0775 45.7696 75.9497 46.5425 76.3968C46.9249 76.6284 47.7057 77.0116 48.5901 77.4108C48.9805 77.5864 50.4864 78.0415 51.0999 78.1773C52.0161 78.3689 54.1674 78.3689 55.243 78.1773C56.1513 78.0096 57.7448 77.5146 57.8802 77.3549C57.9519 77.2671 57.9121 77.2192 57.6651 77.1154C56.8843 76.796 56.6373 76.6683 56.2549 76.3888C55.721 75.9976 55.5059 75.7581 55.3147 75.3509C54.9641 74.5924 55.1792 73.7541 55.9043 73.0675C56.3106 72.6842 56.4541 72.6523 57.211 72.804C58.6133 73.0755 59.0913 73.1234 60.5015 73.1234C62.0472 73.1234 62.7245 73.0355 63.8877 72.6763C65.1068 72.301 66.3975 71.6463 67.6723 70.7441C68.3814 70.2411 68.4691 70.0575 68.0069 70.0575C67.4731 70.0575 66.3816 69.818 65.9274 69.6024C65.0908 69.2112 64.6526 68.5086 64.7403 67.7102C64.796 67.2152 65.2263 66.321 65.4573 66.2331C65.5609 66.1932 66.0868 66.0974 66.6365 66.0256C67.1863 65.9537 67.7201 65.8659 67.8317 65.8339C67.9432 65.794 68.23 65.7222 68.4691 65.6663C69.6961 65.4028 71.433 64.6922 72.2536 64.1174C72.7874 63.7421 73.64 63.0236 74.1579 62.5046C74.7554 61.8978 75.9585 60.3409 75.9585 60.1733C75.9585 60.0535 75.8151 60.0615 75.1618 60.2451C74.9626 60.293 74.4447 60.3409 74.0065 60.3409C73.3611 60.3409 73.138 60.309 72.8353 60.1733C72.0783 59.8299 71.672 59.0635 71.7676 58.1453C71.8234 57.5625 71.9509 57.283 72.2138 57.1473C72.3253 57.0914 72.6839 56.9158 73.0105 56.7561C76.2453 55.1753 78.1177 53.3549 79.3686 50.5765C79.6475 49.9537 80.1813 48.4048 80.1813 48.2132C80.1813 48.0615 80.0618 48.0695 79.9343 48.2291C79.8785 48.301 79.759 48.3888 79.6634 48.4287C79.5758 48.4687 79.3447 48.5964 79.1535 48.7082C78.0062 49.3868 76.6756 49.3948 76.0701 48.7242C75.7514 48.3808 75.5362 47.8379 75.4964 47.287L75.4566 46.7521L76.5322 45.6822C79.273 42.9437 80.5 40.1733 80.5 36.7321C80.5 35.9896 80.4681 35.6383 80.4044 35.5984C80.3486 35.5665 80.2769 35.5984 80.2291 35.6862C80.1813 35.7741 79.8626 36.1174 79.528 36.4607C78.3089 37.6902 77.1696 37.8818 76.2852 37.0036C75.9107 36.6363 75.5601 36.0216 75.5601 35.7501C75.5601 35.6703 75.8629 35.0156 76.2214 34.289C76.9305 32.8759 77.3767 31.6623 77.6397 30.4008C77.7592 29.794 77.799 29.3309 77.799 28.3409C77.791 27.6383 77.7751 26.9437 77.7432 26.784C77.5281 25.4188 76.9545 23.5505 76.7632 23.5505C76.6995 23.5505 76.6119 23.6942 76.5561 23.8699C76.2613 24.8759 75.5362 25.826 74.7953 26.1932C74.4287 26.3689 74.2933 26.4008 73.9587 26.3609C73.4806 26.305 72.9229 26.0016 72.5165 25.5705C72.1819 25.2271 72.1421 24.9557 72.3014 24.2291C72.66 22.5924 72.6998 19.7341 72.3731 18.4008C72.0305 16.9956 71.6401 16.0615 70.8513 14.792C70.3813 14.0256 69.6642 13.0515 69.5686 13.0515C69.5367 13.0515 69.5048 13.315 69.5048 13.6264C69.5048 14.2731 69.2977 15.1513 69.0348 15.6703C68.477 16.7721 67.4412 17.0515 66.2382 16.4447C65.784 16.2132 65.6008 15.9816 65.6008 15.6383C65.6008 14.9916 65.0191 12.1892 64.804 11.782C64.7642 11.7102 64.6606 11.4467 64.5729 11.1912C63.8877 9.27505 62.2385 7.27106 60.0474 5.72216C59.8402 5.57845 59.5454 5.48264 59.5454 5.56248C59.5454 5.57845 59.6172 5.92974 59.7048 6.34491C59.9996 7.75809 59.8721 8.55649 59.2746 9.17924C58.8682 9.61038 58.2945 9.80199 57.6412 9.73014C56.8285 9.6503 56.8126 9.62635 56.2389 8.46867C55.6653 7.31098 55.7051 7.38284 55.0677 6.42475C54.5179 5.58643 54.4462 5.49062 53.8487 4.84391C52.8527 3.74211 51.8966 3.02356 50.5501 2.3529C49.3709 1.77007 47.8651 1.2511 47.7296 1.38683C47.6898 1.42674 47.7854 1.65031 47.9368 1.88982C48.4945 2.7521 48.6618 3.27106 48.6698 4.07745C48.6698 4.77206 48.6539 4.82794 48.4228 5.15529C48.0882 5.61836 47.4348 5.9537 46.7576 6.00958L46.2477 6.0495L45.427 5.20319C44.6382 4.3968 44.1921 3.98962 43.6184 3.5505C43.475 3.43872 43.3156 3.31097 43.2678 3.27106C42.9412 2.99162 41.9054 2.36887 41.268 2.07346C39.7302 1.34691 38.4953 1.07545 36.5034 1.01956C35.3242 0.979645 35.0852 0.995613 35.0852 1.08344ZM23.7713 28.4208C26.3687 28.7721 27.8188 29.8739 28.6395 32.1333C28.8068 32.5884 28.8307 32.788 28.8307 33.81C28.8307 35.2711 28.6634 35.8938 27.9782 36.9637C27.2213 38.1373 25.5401 39.0715 23.7474 39.311C22.7993 39.4387 21.1022 39.4228 20.9907 39.287C20.8632 39.1353 20.8791 35.8379 21.0066 35.7421C21.0624 35.7022 21.397 35.6383 21.7555 35.5824C22.7515 35.4467 23.1977 35.1673 23.4207 34.5525C23.6598 33.8818 23.4686 33.0355 23.0064 32.7162C22.5045 32.3729 22.2734 32.3329 20.8632 32.3329H19.5087L19.4689 38.9996L19.429 45.6663H16.7599H14.0908L14.0669 37.1633C14.0589 32.4846 14.0669 28.5804 14.0908 28.4767L14.1306 28.301H18.5367C21.899 28.301 23.1339 28.3329 23.7713 28.4208ZM36.1608 28.4767C36.1847 28.5804 36.1927 32.4846 36.1847 37.1633L36.1608 45.6663H33.5315H30.9022L30.8783 37.0834C30.8704 32.3649 30.8783 28.4527 30.9022 28.3968C30.9261 28.325 31.5317 28.301 33.5236 28.301H36.121L36.1608 28.4767ZM44.5665 34.824C44.5904 39.1513 44.6303 41.3309 44.686 41.3868C44.7418 41.4427 45.929 41.4826 48.0722 41.4906L51.3787 41.5146V43.5904V45.6663H45.3234H39.2681L39.2442 37.0834C39.2363 32.3649 39.2442 28.4527 39.2681 28.3968C39.292 28.317 39.8657 28.301 41.9133 28.317L44.5267 28.3409L44.5665 34.824ZM62.8759 28.4048C62.9237 28.4527 62.9874 28.6124 63.0113 28.7401C63.0432 28.8759 63.1707 29.299 63.2981 29.6982C63.4177 30.0894 63.6726 30.9038 63.8479 31.4946C64.0312 32.0854 64.2224 32.7162 64.2861 32.8918C64.3419 33.0675 64.5809 33.802 64.804 34.5285C65.0351 35.2551 65.2821 36.0535 65.3617 36.309C65.4494 36.5645 65.4972 36.82 65.4653 36.8838C65.4334 36.9876 65.051 37.0036 63.0591 37.0036C61.2744 37.0036 60.6609 36.9796 60.5573 36.8998C60.4776 36.8439 60.3263 36.4846 60.2227 36.0854C60.1111 35.6862 59.9359 35.0475 59.8323 34.6643C59.7287 34.2731 59.6092 33.9218 59.5614 33.8739C59.4419 33.7541 59.3303 34.0176 59.0993 34.8719C58.9957 35.279 58.7806 36.0535 58.6212 36.6044C58.2069 38.0575 58.1591 38.281 58.2627 38.3848C58.3185 38.4407 59.5933 38.4806 62.1907 38.5126L66.039 38.5605L66.3019 39.3589C66.4453 39.798 66.7799 40.8359 67.0349 41.6743C67.2899 42.5046 67.5687 43.4068 67.6564 43.6703C68.0149 44.7481 68.23 45.5545 68.1902 45.6264C68.1344 45.7222 62.9794 45.7381 62.844 45.6423C62.7962 45.6104 62.7165 45.4427 62.6767 45.2671C62.4058 44.2611 62.3102 43.9337 62.1668 43.4307C62.0711 43.1194 61.9516 42.7441 61.8959 42.5924L61.7923 42.313L59.657 42.289C58.4778 42.281 57.4341 42.289 57.3384 42.313C57.211 42.3449 57.1313 42.4487 57.0676 42.6962C57.0197 42.8798 56.948 43.1034 56.9162 43.1912C56.8046 43.4866 56.4461 44.7002 56.3505 45.1074C56.3027 45.323 56.1991 45.5545 56.1354 45.6024C55.976 45.7301 51.9365 45.7541 51.8568 45.6264C51.8329 45.5864 52.0241 44.8759 52.287 44.0535C52.542 43.2232 52.9085 42.0495 53.0918 41.4347C53.275 40.82 53.4901 40.1174 53.5698 39.8778C53.7371 39.3828 54.2311 37.778 54.6056 36.5246C54.741 36.0615 54.9402 35.4307 55.0438 35.1273C55.1474 34.816 55.3386 34.2092 55.474 33.7701C55.6015 33.3309 55.8565 32.4846 56.0397 31.8938C56.223 31.303 56.478 30.4727 56.6054 30.0575C56.964 28.8838 57.0915 28.5086 57.1791 28.3968C57.2906 28.2531 62.7564 28.2531 62.8759 28.4048ZM44.1522 50.9118C44.2638 51.0236 44.2797 51.7581 44.1761 51.9178C44.1363 51.9816 44.0008 52.0136 43.8415 51.9976C43.5706 51.9737 43.5706 51.9737 43.5467 51.5106C43.5308 51.2311 43.5626 50.9996 43.6184 50.9278C43.7299 50.792 44.0247 50.784 44.1522 50.9118ZM46.1441 54.3609C46.16 57.1154 46.1441 57.8818 46.0644 57.9377C45.9051 58.0335 45.7059 58.0096 45.5704 57.8818C45.4669 57.7701 45.4509 57.307 45.443 54.4407C45.443 52.2052 45.4669 51.0794 45.5226 50.9677C45.5943 50.8479 45.674 50.816 45.8652 50.8319L46.1202 50.8559L46.1441 54.3609ZM34.1132 52.6044C34.7904 52.788 35.2286 53.1473 35.5075 53.7541C35.6668 54.0974 35.6828 54.281 35.7067 56.0216C35.7385 57.8978 35.7385 57.9058 35.5632 57.9617C35.4676 57.9936 35.3083 57.9936 35.2047 57.9697L35.0214 57.9218L34.9896 56.1094C34.9657 54.4487 34.9497 54.2651 34.8063 54.0096C34.5354 53.5545 34.0733 53.283 33.5634 53.2751C32.7746 53.2591 32.2886 53.4906 31.9301 54.0495C31.7946 54.2571 31.7707 54.4806 31.7388 56.0695C31.699 58.0256 31.6831 58.0814 31.2289 57.9697L31.0218 57.9218L31.0377 55.303L31.0616 52.6922H31.3325C31.5795 52.6922 31.6193 52.7242 31.6751 52.9477C31.7548 53.2511 31.8344 53.2751 32.0496 53.0595C32.2647 52.8439 32.5196 52.7082 32.8941 52.5964C33.3323 52.4767 33.6192 52.4767 34.1132 52.6044ZM40.6863 52.7721C40.8298 52.828 41.0847 53.0116 41.26 53.1633C41.4273 53.323 41.5946 53.4268 41.6265 53.3948C41.6584 53.3549 41.6982 53.1872 41.7142 53.0116C41.7381 52.7242 41.762 52.6922 41.9771 52.6683C42.3994 52.6124 42.4153 52.6922 42.4153 55.311C42.4153 56.796 42.3834 57.7541 42.3356 57.8499C42.24 58.0176 41.9372 58.0495 41.7938 57.9058C41.7381 57.8499 41.6982 57.6902 41.6982 57.5545C41.6982 57.4108 41.6664 57.2751 41.6345 57.2511C41.5946 57.2272 41.4194 57.3469 41.2441 57.5066C40.7899 57.9297 40.2481 58.1054 39.4833 58.0735C38.6546 58.0335 37.9615 57.6982 37.4117 57.0755C36.9337 56.5405 36.7982 56.1254 36.8062 55.2471C36.8062 54.7122 36.846 54.5365 37.0372 54.1453C37.7065 52.788 39.3 52.1892 40.6863 52.7721ZM49.4267 52.7321C49.7852 52.9158 50.0482 53.2751 50.1119 53.6743C50.1677 54.0256 50.08 54.0974 49.7295 54.0335C49.594 54.0096 49.4665 53.8898 49.3789 53.7142C48.9885 52.9796 47.9129 53.1792 47.9129 53.9777C47.9129 54.3769 48.2395 54.6962 48.8132 54.8798C49.8968 55.2232 50.2394 55.5585 50.2872 56.3569C50.3191 56.9637 50.088 57.4427 49.594 57.802C49.3152 57.9936 49.1638 58.0415 48.7096 58.0655C48.2236 58.0974 48.1121 58.0735 47.8013 57.8898C47.4269 57.6743 47.1958 57.3629 47.0365 56.8599C46.9647 56.6204 46.9647 56.5325 47.0365 56.4447C47.2516 56.1812 47.6659 56.3649 47.7854 56.78C47.889 57.0994 48.2874 57.3629 48.6857 57.3629C49.4586 57.3629 49.8888 56.4527 49.3709 55.9337C49.2435 55.814 48.9726 55.6543 48.7495 55.5745C47.7774 55.2232 47.4747 55.0315 47.2994 54.6244C47.1639 54.321 47.1719 53.6503 47.3074 53.3788C47.4587 53.0914 47.9448 52.6683 48.1758 52.6204C48.2714 52.5964 48.4228 52.5645 48.5104 52.5405C48.7415 52.4926 49.108 52.5725 49.4267 52.7321ZM44.2 52.78C44.2239 52.8519 44.2478 54.0096 44.2478 55.3589C44.2478 57.9377 44.2399 58.0016 43.8893 58.0016C43.5387 58.0016 43.5308 57.9377 43.5308 55.287C43.5308 53.8978 43.5546 52.7321 43.5865 52.7082C43.6901 52.5964 44.1522 52.6523 44.2 52.78Z" fill="#1B1919"/>
<path d="M39.228 53.2671C39.1164 53.291 38.997 53.3389 38.9571 53.3789C38.9093 53.4188 38.8217 53.4507 38.742 53.4507C38.5429 53.4507 37.8897 54.0655 37.6985 54.4407C37.4595 54.9038 37.4515 55.7661 37.6905 56.2052C38.2481 57.2591 39.5386 57.6743 40.5822 57.1314C41.4426 56.6922 41.9046 55.6064 41.6098 54.7202C41.4983 54.3928 40.9327 53.6104 40.8053 53.6104C40.7575 53.6104 40.6539 53.5625 40.5902 53.4986C40.5185 53.4348 40.2715 53.3469 40.0405 53.299C39.6103 53.2112 39.5705 53.2112 39.228 53.2671Z" fill="#1B1919"/>
</g>
<defs>
<clipPath id="clip0_28_29">
<rect width="80" height="81" fill="white" transform="translate(0.5)"/>
</clipPath>
</defs>
</svg>