<svg width="299" height="337" viewBox="0 0 299 337" fill="none" xmlns="http://www.w3.org/2000/svg">
<g opacity="0.2">
<path d="M143.961 4.50781C143.961 4.77356 144.591 5.40469 145.321 5.96939C147.41 7.49741 150.03 10.5534 151.091 12.6793C152.186 14.9381 152.352 17.9277 151.489 19.5886C150.594 21.2162 148.77 22.8771 146.813 23.8404C144.591 24.9366 144.458 24.9366 142.435 23.8736C139.251 22.1463 134.476 19.8543 132.519 19.1235C131.425 18.6917 130.231 18.2267 129.866 18.0938C124.427 15.835 114.776 14.6059 108.74 15.4364C103.433 16.1339 94.7112 18.4592 93.7825 19.3893C93.5836 19.5886 93.9484 19.8875 94.7443 20.2529C100.117 22.6114 102.339 24.1394 104.428 26.8632C105.49 28.1919 105.788 31.0818 105.092 33.0749C104.495 34.8354 102.24 37.6589 101.012 38.2568C99.9512 38.7551 99.6527 38.7551 96.9664 38.2568C91.1957 37.1606 88.1777 36.9613 81.6442 37.0942C73.0877 37.3267 69.2738 38.1572 62.5413 41.3793C58.2299 43.4388 52.0281 47.4913 50.8673 48.9861C50.3367 49.6504 51.0332 49.9162 53.3879 49.9494C57.4671 50.0158 61.878 51.7099 63.8016 53.9687C65.4267 55.8621 65.891 57.7555 65.3604 60.2136C64.4981 64.4322 62.8067 66.2592 59.855 66.2592C58.2631 66.2592 51.7296 67.3886 49.1096 68.1194C42.2777 70.046 36.2085 72.9027 31.8971 76.2244C27.3535 79.679 22.2462 85.2264 19.4935 89.5779C18.7307 90.8069 18.7307 91.6374 19.5266 91.3384C21.1849 90.6408 24.4019 90.1426 27.1545 90.1426C29.9735 90.1094 30.471 90.209 32.1292 91.0727C34.4508 92.2353 35.711 93.9626 36.2085 96.6532C36.6065 98.8456 36.1422 102.134 35.3131 102.832C35.0478 103.031 32.9584 104.16 30.6037 105.29C26.6571 107.216 19.6925 111.601 17.4373 113.561C12.7942 117.613 8.81442 122.596 6.09491 127.712C4.00553 131.598 0.987537 140.069 1.48501 140.567C1.61767 140.7 2.11514 140.534 2.61261 140.235C3.11008 139.902 4.90098 138.972 6.59238 138.142C9.2124 136.846 10.0415 136.581 12.2304 136.448C14.4193 136.282 15.0162 136.381 16.1438 136.946C18.8302 138.308 20.9196 141.929 20.9196 145.184C20.9196 146.646 20.8532 146.778 17.3378 150.266C13.0927 154.485 12.3962 155.282 9.64354 158.903C7.18935 162.125 6.89087 162.59 4.73516 166.908C2.51312 171.326 1.35235 175.213 0.191583 182.222C-0.0405706 183.716 -0.0737354 192.851 0.158418 193.084C0.257912 193.15 1.71716 191.821 3.40857 190.127C7.08985 186.407 9.41139 185.045 12.2967 185.045C13.358 185.012 14.6183 185.278 15.3147 185.577C17.7689 186.772 20.8864 191.223 20.4553 192.984C20.3558 193.349 19.4603 195.21 18.4322 197.07C17.4373 198.93 16.6081 200.491 16.6081 200.591C16.6081 200.69 16.177 201.687 15.6464 202.85C12.7279 209.261 10.9701 216.867 10.9701 223.079C10.9701 228.527 12.562 236.765 14.6514 242.279L15.1821 243.74L15.7127 242.943C16.0112 242.511 16.5418 241.349 16.9066 240.419C18.7307 235.768 22.1135 232.28 25.3636 231.649C26.8892 231.35 29.1776 231.815 30.6037 232.679C32.1956 233.642 34.1855 235.669 34.3845 236.565C34.5171 237.03 34.3845 238.725 34.086 240.286C33.1574 245.136 32.8257 248.922 32.8257 254.104C32.7925 262.542 34.2518 268.82 37.8336 275.696C39.8566 279.649 40.3209 280.379 42.8746 283.801C45.4947 287.289 45.76 287.289 45.7931 284C45.8263 278.419 48.6121 272.972 51.9949 271.842C53.8853 271.244 56.9697 271.61 59.2249 272.739C61.5796 273.902 61.7122 274.234 62.5082 280.014C64.0669 291.275 67.6155 299.911 73.7179 307.219C78.0624 312.401 87.2823 319.642 87.2491 317.782C87.2491 317.649 86.9506 316.454 86.5858 315.092C85.7898 312.102 85.7235 308.515 86.4531 306.056C87.1496 303.731 89.5043 301.306 91.4278 301.007C93.6167 300.642 96.5021 300.742 97.7292 301.273C98.6909 301.672 99.0889 302.203 100.183 304.495C101.643 307.584 103.566 311.139 104.959 313.398C108.176 318.546 113.416 324.293 117.562 327.183C118.59 327.914 119.651 328.711 119.916 328.91C120.149 329.143 120.447 329.342 120.513 329.342C120.58 329.342 121.674 329.907 122.934 330.604C125.919 332.232 128.838 333.461 132.652 334.657C137.029 336.052 137.195 336.019 135.935 333.992C134.608 331.9 134.409 331.534 133.547 329.774C131.69 325.954 131.723 321.968 133.613 319.41C134.708 317.948 138.058 316.387 140.578 316.155L142.468 315.988L146.946 320.473C152.02 325.522 156.232 328.844 161.008 331.501C164.921 333.693 171.819 335.919 176.96 336.65C179.348 336.982 189.065 337.115 189.065 336.816C189.065 336.716 187.672 335.255 185.947 333.561C180.276 327.98 179.314 323.629 182.929 319.742C185.947 316.52 188.435 315.988 191.652 317.849C193.244 318.812 196.494 320.406 200.175 322.067C201.8 322.798 208.068 324.691 210.622 325.256C214.436 326.053 223.39 326.053 227.868 325.256C231.648 324.559 238.281 322.499 238.845 321.835C239.144 321.469 238.978 321.27 237.95 320.838C234.7 319.51 233.672 318.978 232.08 317.815C229.858 316.188 228.962 315.191 228.166 313.497C226.707 310.342 227.602 306.854 230.62 303.997C232.312 302.403 232.909 302.27 236.059 302.901C241.896 304.03 243.886 304.229 249.756 304.229C256.19 304.229 259.009 303.864 263.851 302.369C268.926 300.808 274.298 298.084 279.605 294.331C282.556 292.238 282.921 291.474 280.998 291.474C278.776 291.474 274.232 290.477 272.342 289.581C268.859 287.953 267.035 285.03 267.4 281.708C267.632 279.649 269.423 275.928 270.385 275.563C270.816 275.397 273.005 274.998 275.293 274.699C277.582 274.4 279.804 274.035 280.268 273.902C280.732 273.736 281.926 273.437 282.921 273.204C288.029 272.108 295.258 269.152 298.674 266.76C300.897 265.199 304.445 262.209 306.601 260.05C309.088 257.526 314.096 251.048 314.096 250.351C314.096 249.852 313.499 249.886 310.78 250.65C309.95 250.849 307.795 251.048 305.971 251.048C303.284 251.048 302.356 250.915 301.095 250.351C297.945 248.922 296.253 245.733 296.651 241.913C296.884 239.489 297.414 238.326 298.509 237.761C298.973 237.529 300.465 236.798 301.825 236.134C315.29 229.557 323.084 221.983 328.291 210.423C329.451 207.832 331.673 201.388 331.673 200.591C331.673 199.96 331.176 199.993 330.645 200.657C330.413 200.956 329.916 201.322 329.518 201.488C329.153 201.654 328.191 202.185 327.395 202.65C322.619 205.474 317.081 205.507 314.56 202.717C313.234 201.288 312.338 199.03 312.173 196.738L312.007 194.512L316.484 190.061C327.893 178.667 333 167.141 333 152.824C333 149.735 332.867 148.273 332.602 148.107C332.37 147.974 332.071 148.107 331.872 148.473C331.673 148.838 330.347 150.266 328.954 151.695C323.88 156.81 319.137 157.607 315.456 153.953C313.897 152.425 312.438 149.868 312.438 148.738C312.438 148.406 313.698 145.682 315.191 142.659C318.142 136.78 319.999 131.731 321.094 126.483C321.591 123.958 321.757 122.031 321.757 117.912C321.724 114.989 321.658 112.099 321.525 111.435C320.63 105.755 318.242 97.9819 317.446 97.9819C317.18 97.9819 316.816 98.5798 316.583 99.3106C315.356 103.496 312.338 107.449 309.254 108.977C307.728 109.708 307.165 109.841 305.772 109.674C303.782 109.442 301.46 108.18 299.769 106.386C298.376 104.958 298.21 103.828 298.873 100.805C300.366 93.9958 300.532 82.1039 299.172 76.5566C297.746 70.7103 296.121 66.8239 292.837 61.5423C290.881 58.3534 287.896 54.3009 287.498 54.3009C287.365 54.3009 287.233 55.3971 287.233 56.6925C287.233 59.3831 286.37 63.0371 285.276 65.1962C282.954 69.7802 278.643 70.9428 273.635 68.4183C271.745 67.455 270.982 66.4917 270.982 65.0634C270.982 62.3727 268.561 50.7134 267.665 49.0193C267.5 48.7203 267.068 47.6241 266.704 46.5612C263.851 38.589 256.986 30.2514 247.866 23.8072C247.004 23.2093 245.777 22.8107 245.777 23.1429C245.777 23.2093 246.075 24.6708 246.44 26.3982C247.667 32.2776 247.136 35.5994 244.649 38.1904C242.958 39.9841 240.57 40.7813 237.85 40.4824C234.467 40.1502 234.401 40.0506 232.013 35.234C229.625 30.4175 229.791 30.7164 227.138 26.7303C224.85 23.2425 224.551 22.8439 222.064 20.1533C217.918 15.5692 213.939 12.5797 208.334 9.7894C203.425 7.36453 197.157 5.20538 196.593 5.77008C196.428 5.93616 196.825 6.86627 197.456 7.86279C199.777 11.4503 200.474 13.6094 200.507 16.9644C200.507 19.8543 200.44 20.0868 199.479 21.4488C198.086 23.3754 195.366 24.7705 192.547 25.003L190.425 25.1691L187.009 21.648C183.725 18.2931 181.868 16.599 179.48 14.772C178.883 14.307 178.22 13.7755 178.021 13.6094C176.661 12.4468 172.35 9.85583 169.697 8.6268C163.296 5.604 158.155 4.47461 149.864 4.24207C144.956 4.07599 143.961 4.14243 143.961 4.50781ZM96.8669 118.245C107.679 119.706 113.715 124.29 117.131 133.691C117.827 135.584 117.926 136.415 117.926 140.666C117.926 146.745 117.23 149.336 114.378 153.787C111.227 158.67 104.229 162.557 96.7674 163.553C92.8208 164.085 85.7567 164.018 85.2924 163.454C84.7617 162.823 84.8281 149.104 85.3587 148.705C85.5909 148.539 86.9838 148.273 88.4762 148.041C92.6218 147.476 94.479 146.313 95.4076 143.756C96.4026 140.965 95.6066 137.444 93.6831 136.116C91.5937 134.687 90.6319 134.521 84.7617 134.521H79.1237L78.9579 162.258L78.7921 189.994H67.6819H56.5717L56.4722 154.618C56.439 135.152 56.4722 118.909 56.5717 118.477L56.7375 117.746H75.0776C89.0732 117.746 94.2137 117.879 96.8669 118.245ZM148.438 118.477C148.538 118.909 148.571 135.152 148.538 154.618L148.438 189.994H137.494H126.549L126.45 154.286C126.417 134.654 126.45 118.377 126.549 118.145C126.649 117.846 129.169 117.746 137.461 117.746H148.272L148.438 118.477ZM183.427 144.885C183.526 162.889 183.692 171.957 183.924 172.19C184.157 172.422 189.098 172.588 198.019 172.622L211.783 172.721V181.358V189.994H186.578H161.372L161.273 154.286C161.24 134.654 161.273 118.377 161.372 118.145C161.472 117.813 163.86 117.746 172.383 117.813L183.261 117.912L183.427 144.885ZM259.64 118.178C259.839 118.377 260.104 119.042 260.203 119.573C260.336 120.138 260.867 121.899 261.397 123.559C261.895 125.187 262.956 128.575 263.686 131.033C264.448 133.491 265.244 136.116 265.51 136.846C265.742 137.577 266.737 140.633 267.665 143.656C268.627 146.679 269.655 150.001 269.987 151.064C270.352 152.126 270.551 153.189 270.418 153.455C270.285 153.887 268.694 153.953 260.402 153.953C252.973 153.953 250.42 153.854 249.989 153.522C249.657 153.289 249.027 151.794 248.596 150.133C248.131 148.473 247.402 145.815 246.971 144.221C246.539 142.593 246.042 141.131 245.843 140.932C245.346 140.434 244.881 141.53 243.919 145.084C243.488 146.778 242.593 150.001 241.93 152.293C240.205 158.338 240.006 159.268 240.437 159.7C240.669 159.933 245.976 160.099 256.787 160.232L272.806 160.431L273.9 163.753C274.497 165.58 275.89 169.898 276.952 173.386C278.013 176.84 279.174 180.594 279.538 181.69C281.031 186.174 281.926 189.529 281.76 189.828C281.528 190.227 260.071 190.293 259.507 189.895C259.308 189.762 258.976 189.064 258.81 188.334C257.683 184.148 257.285 182.786 256.688 180.694C256.29 179.398 255.792 177.837 255.56 177.206L255.129 176.043L246.241 175.943C241.333 175.91 236.988 175.943 236.59 176.043C236.059 176.176 235.728 176.608 235.462 177.638C235.263 178.402 234.965 179.332 234.832 179.697C234.368 180.926 232.876 185.975 232.478 187.669C232.279 188.566 231.847 189.529 231.582 189.729C230.919 190.26 214.104 190.36 213.773 189.828C213.673 189.662 214.469 186.706 215.564 183.285C216.625 179.83 218.15 174.947 218.913 172.389C219.676 169.831 220.571 166.908 220.903 165.912C221.6 163.852 223.656 157.176 225.215 151.96C225.778 150.034 226.607 147.41 227.039 146.147C227.47 144.852 228.266 142.327 228.829 140.5C229.36 138.673 230.421 135.152 231.184 132.694C231.947 130.236 233.008 126.782 233.539 125.054C235.031 120.171 235.562 118.61 235.927 118.145C236.391 117.547 259.142 117.547 259.64 118.178ZM181.702 211.818C182.167 212.283 182.233 215.339 181.802 216.004C181.636 216.27 181.072 216.402 180.409 216.336C179.281 216.236 179.281 216.236 179.182 214.31C179.115 213.147 179.248 212.184 179.48 211.885C179.945 211.32 181.172 211.287 181.702 211.818ZM189.994 226.168C190.06 237.628 189.994 240.817 189.662 241.05C188.999 241.448 188.169 241.349 187.606 240.817C187.175 240.352 187.108 238.426 187.075 226.5C187.075 217.2 187.175 212.516 187.407 212.051C187.705 211.553 188.037 211.42 188.833 211.486L189.894 211.586L189.994 226.168ZM139.915 218.86C142.734 219.624 144.558 221.119 145.719 223.644C146.382 225.072 146.448 225.836 146.548 233.078C146.68 240.884 146.68 240.917 145.951 241.149C145.553 241.282 144.889 241.282 144.458 241.183L143.696 240.983L143.563 233.443C143.463 226.534 143.397 225.77 142.8 224.707C141.672 222.813 139.749 221.684 137.626 221.651C134.343 221.584 132.32 222.548 130.828 224.873C130.264 225.736 130.164 226.667 130.032 233.277C129.866 241.415 129.799 241.648 127.909 241.183L127.047 240.983L127.113 230.088L127.213 219.226H128.34C129.368 219.226 129.534 219.359 129.766 220.289C130.098 221.551 130.43 221.651 131.325 220.754C132.221 219.857 133.282 219.292 134.841 218.827C136.665 218.329 137.859 218.329 139.915 218.86ZM167.276 219.558C167.873 219.791 168.934 220.555 169.664 221.186C170.36 221.85 171.056 222.282 171.189 222.149C171.322 221.983 171.488 221.285 171.554 220.555C171.653 219.359 171.753 219.226 172.648 219.126C174.406 218.894 174.472 219.226 174.472 230.121C174.472 236.3 174.34 240.286 174.141 240.684C173.743 241.382 172.483 241.515 171.886 240.917C171.653 240.684 171.488 240.02 171.488 239.455C171.488 238.857 171.355 238.293 171.222 238.193C171.056 238.093 170.327 238.592 169.597 239.256C167.707 241.017 165.452 241.747 162.268 241.614C158.819 241.448 155.933 240.053 153.645 237.462C151.655 235.237 151.091 233.509 151.124 229.855C151.124 227.63 151.29 226.899 152.086 225.271C154.872 219.624 161.505 217.133 167.276 219.558ZM203.657 219.392C205.15 220.156 206.244 221.651 206.51 223.312C206.742 224.773 206.377 225.072 204.918 224.806C204.354 224.707 203.823 224.208 203.458 223.478C201.833 220.422 197.356 221.252 197.356 224.574C197.356 226.235 198.716 227.563 201.104 228.327C205.614 229.756 207.04 231.151 207.239 234.473C207.372 236.997 206.41 238.99 204.354 240.485C203.193 241.282 202.563 241.482 200.673 241.581C198.65 241.714 198.185 241.614 196.892 240.85C195.333 239.954 194.371 238.658 193.708 236.565C193.41 235.569 193.41 235.203 193.708 234.838C194.603 233.742 196.328 234.506 196.825 236.233C197.257 237.562 198.915 238.658 200.573 238.658C203.79 238.658 205.581 234.871 203.425 232.712C202.895 232.214 201.767 231.55 200.838 231.217C196.792 229.756 195.532 228.959 194.802 227.265C194.239 226.002 194.272 223.212 194.836 222.083C195.466 220.887 197.489 219.126 198.451 218.927C198.849 218.827 199.479 218.694 199.843 218.595C200.805 218.395 202.331 218.728 203.657 219.392ZM181.901 219.591C182.001 219.89 182.1 224.707 182.1 230.321C182.1 241.05 182.067 241.316 180.608 241.316C179.149 241.316 179.115 241.05 179.115 230.022C179.115 224.242 179.215 219.392 179.348 219.292C179.779 218.827 181.702 219.06 181.901 219.591Z" fill="#FFFBFA"/>
<path d="M161.205 221.618C160.741 221.717 160.243 221.917 160.078 222.083C159.879 222.249 159.514 222.382 159.182 222.382C158.353 222.382 155.634 224.939 154.839 226.501C153.844 228.427 153.811 232.015 154.805 233.842C157.127 238.226 162.498 239.954 166.842 237.695C170.423 235.868 172.347 231.35 171.12 227.663C170.655 226.301 168.301 223.046 167.771 223.046C167.572 223.046 167.141 222.847 166.875 222.581C166.577 222.315 165.549 221.95 164.587 221.751C162.797 221.385 162.631 221.385 161.205 221.618Z" fill="#FFFBFA"/>
</g>
</svg>
