<svg width="88" height="17" viewBox="0 0 88 17" fill="none" xmlns="http://www.w3.org/2000/svg">
<path d="M8.00004 1.8335L10.06 6.00683L14.6667 6.68016L11.3334 9.92683L12.12 14.5135L8.00004 12.3468L3.88004 14.5135L4.66671 9.92683L1.33337 6.68016L5.94004 6.00683L8.00004 1.8335Z" stroke="#FCC02A" stroke-linecap="round" stroke-linejoin="round"/>
<path d="M26 1.8335L28.06 6.00683L32.6667 6.68016L29.3334 9.92683L30.12 14.5135L26 12.3468L21.88 14.5135L22.6667 9.92683L19.3334 6.68016L23.94 6.00683L26 1.8335Z" fill="#FCC02A"/>
<path d="M44 1.8335L46.06 6.00683L50.6667 6.68016L47.3334 9.92683L48.12 14.5135L44 12.3468L39.88 14.5135L40.6667 9.92683L37.3334 6.68016L41.94 6.00683L44 1.8335Z" fill="#FCC02A"/>
<path d="M62 1.8335L64.06 6.00683L68.6667 6.68016L65.3334 9.92683L66.12 14.5135L62 12.3468L57.88 14.5135L58.6667 9.92683L55.3334 6.68016L59.94 6.00683L62 1.8335Z" fill="#FCC02A"/>
<path d="M80 1.8335L82.06 6.00683L86.6667 6.68016L83.3334 9.92683L84.12 14.5135L80 12.3468L75.88 14.5135L76.6667 9.92683L73.3334 6.68016L77.94 6.00683L80 1.8335Z" fill="#FCC02A"/>
</svg>
