<svg width="30" height="30" viewBox="0 0 30 30" fill="none" xmlns="http://www.w3.org/2000/svg">
<rect x="1" y="1" width="28" height="28" rx="14" stroke="#FFFBFA" stroke-width="2"/>
<path d="M19.6904 7.15944C16.8318 6.61352 13.8632 6.61352 11.0046 7.15944C9.74018 7.43239 8.14594 8.96095 7.87107 10.162C7.37631 12.5094 7.37631 14.9114 7.87107 17.2588C8.20092 18.4598 9.79516 19.9884 11.0046 20.2614C11.0596 20.2614 11.1145 20.316 11.1145 20.3705V23.8098C11.1145 23.9736 11.3344 24.0828 11.4444 23.919L13.0936 22.2267C13.0936 22.2267 14.413 20.8619 14.6329 20.6435C14.6329 20.6435 14.6878 20.5889 14.7428 20.5889C16.392 20.6435 18.0962 20.4797 19.7454 20.2068C21.0098 19.9338 22.6041 18.4053 22.8789 17.2042C23.3737 14.8568 23.3737 12.4548 22.8789 10.1074C22.5491 8.96095 20.9548 7.43239 19.6904 7.15944ZM19.7454 17.4226C19.4705 17.9685 19.1407 18.4053 18.591 18.6782C18.426 18.7328 18.2611 18.7874 18.0962 18.842C17.8763 18.7874 17.7114 18.7328 17.5465 18.6782C15.7873 17.9685 14.1381 16.9859 12.8187 15.5665C12.1041 14.7476 11.4993 13.8196 11.0046 12.8369C10.7847 12.3456 10.5648 11.9089 10.3999 11.4176C10.2349 10.9808 10.5098 10.5441 10.7847 10.2166C11.0596 9.889 11.3894 9.67064 11.7742 9.50686C12.0491 9.34309 12.324 9.45227 12.5438 9.67064C12.9836 10.2166 13.4234 10.7625 13.7533 11.363C13.9732 11.7451 13.9182 12.1818 13.5334 12.4548C13.4234 12.5094 13.3685 12.564 13.2585 12.6732C13.2035 12.7278 13.0936 12.7823 13.0386 12.8915C12.9287 13.0553 12.9287 13.2191 12.9836 13.3829C13.4234 14.6385 14.248 15.6211 15.5124 16.167C15.7323 16.2762 15.8973 16.3308 16.1721 16.3308C16.5569 16.2762 16.7219 15.8395 16.9967 15.6211C17.2716 15.4027 17.6014 15.4027 17.9313 15.5665C18.2062 15.7303 18.481 15.9486 18.8109 16.167C19.0857 16.3854 19.3606 16.5492 19.6355 16.7675C19.8004 16.8767 19.8554 17.1497 19.7454 17.4226ZM17.4365 13.3283C17.3266 13.3283 17.3815 13.3283 17.4365 13.3283C17.2166 13.3283 17.1616 13.2191 17.1067 13.0553C17.1067 12.9461 17.1067 12.7823 17.0517 12.6732C16.9967 12.4548 16.8868 12.2364 16.6669 12.0727C16.5569 12.0181 16.447 11.9635 16.337 11.9089C16.1721 11.8543 16.0622 11.8543 15.8973 11.8543C15.7323 11.7997 15.6774 11.6905 15.6774 11.5267C15.6774 11.4176 15.8423 11.3084 15.9522 11.3084C16.8318 11.363 17.4915 11.8543 17.6014 12.8915C17.6014 12.9461 17.6014 13.0553 17.6014 13.1099C17.6014 13.2191 17.5465 13.3283 17.4365 13.3283ZM16.8868 10.9262C16.6119 10.8171 16.337 10.7079 16.0072 10.6533C15.8973 10.6533 15.7323 10.5987 15.6224 10.5987C15.4575 10.5987 15.3475 10.4895 15.4025 10.3257C15.4025 10.162 15.5124 10.0528 15.6774 10.1074C16.2271 10.162 16.7219 10.2711 17.2166 10.4895C18.2062 10.9808 18.7559 11.7997 18.9208 12.8915C18.9208 12.9461 18.9208 13.0007 18.9208 13.0553C18.9208 13.1645 18.9208 13.2737 18.9208 13.4374C18.9208 13.492 18.9208 13.5466 18.9208 13.6012C18.8658 13.8196 18.481 13.8742 18.426 13.6012C18.426 13.5466 18.3711 13.4374 18.3711 13.3829C18.3711 12.8915 18.2611 12.4002 18.0412 11.9635C17.7114 11.4722 17.3266 11.1446 16.8868 10.9262ZM19.8554 14.2017C19.6904 14.2017 19.5805 14.0379 19.5805 13.8742C19.5805 13.5466 19.5255 13.2191 19.4705 12.8915C19.2507 11.1446 17.8213 9.72523 16.1171 9.45227C15.8423 9.39768 15.5674 9.39768 15.3475 9.34309C15.1826 9.34309 14.9627 9.34309 14.9077 9.12472C14.8527 8.96095 15.0177 8.79718 15.1826 8.79718C15.2376 8.79718 15.2925 8.79718 15.2925 8.79718C17.5465 8.85177 15.4025 8.79718 15.2925 8.79718C17.6014 8.85177 19.5255 10.3803 19.9103 12.6732C19.9653 13.0553 20.0203 13.4374 20.0203 13.8742C20.1302 14.0379 20.0203 14.2017 19.8554 14.2017Z" fill="white"/>
</svg>
