<svg width="50" height="50" viewBox="0 0 50 50" fill="none" xmlns="http://www.w3.org/2000/svg">
<path d="M25.0004 47.3958C23.6045 47.3958 22.1879 47.0416 20.9379 46.3124L8.56287 39.1666C6.06287 37.7083 4.50037 35.0208 4.50037 32.1249V17.875C4.50037 14.9792 6.06287 12.2917 8.56287 10.8333L20.9379 3.6875C23.4379 2.22917 26.542 2.22917 29.0629 3.6875L41.4379 10.8333C43.9379 12.2917 45.5004 14.9792 45.5004 17.875V32.1249C45.5004 35.0208 43.9379 37.7083 41.4379 39.1666L29.0629 46.3124C27.8129 47.0416 26.3962 47.3958 25.0004 47.3958ZM25.0004 5.72913C24.1462 5.72913 23.2712 5.95831 22.5004 6.39581L10.1254 13.5416C8.5837 14.4375 7.62537 16.0833 7.62537 17.875V32.1249C7.62537 33.8958 8.5837 35.5625 10.1254 36.4583L22.5004 43.6041C24.042 44.4999 25.9587 44.4999 27.5004 43.6041L39.8754 36.4583C41.417 35.5625 42.3754 33.9166 42.3754 32.1249V17.875C42.3754 16.1042 41.417 14.4375 39.8754 13.5416L27.5004 6.39581C26.7295 5.95831 25.8545 5.72913 25.0004 5.72913Z" fill="#B5838D"/>
<path d="M24.9998 24.4793C21.4581 24.4793 18.5831 21.6043 18.5831 18.0626C18.5831 14.5209 21.4581 11.646 24.9998 11.646C28.5415 11.646 31.4165 14.5209 31.4165 18.0626C31.4165 21.6043 28.5415 24.4793 24.9998 24.4793ZM24.9998 14.771C23.1873 14.771 21.7081 16.2501 21.7081 18.0626C21.7081 19.8751 23.1873 21.3543 24.9998 21.3543C26.8123 21.3543 28.2915 19.8751 28.2915 18.0626C28.2915 16.2501 26.8123 14.771 24.9998 14.771Z" fill="#B5838D"/>
<path d="M33.3333 36.271C32.4791 36.271 31.7708 35.5627 31.7708 34.7085C31.7708 31.8335 28.7291 29.4795 25 29.4795C21.2708 29.4795 18.2291 31.8335 18.2291 34.7085C18.2291 35.5627 17.5208 36.271 16.6666 36.271C15.8125 36.271 15.1041 35.5627 15.1041 34.7085C15.1041 30.1044 19.5416 26.3545 25 26.3545C30.4583 26.3545 34.8958 30.1044 34.8958 34.7085C34.8958 35.5627 34.1875 36.271 33.3333 36.271Z" fill="#B5838D"/>
</svg>
