<svg width="30" height="31" viewBox="0 0 30 31" fill="none" xmlns="http://www.w3.org/2000/svg">
<rect x="1" y="1.5" width="28" height="28" rx="14" stroke="#1B1919" stroke-width="2"/>
<path d="M19.6904 7.65944C16.8318 7.11352 13.8632 7.11352 11.0046 7.65944C9.74018 7.93239 8.14594 9.46095 7.87107 10.662C7.37631 13.0094 7.37631 15.4114 7.87107 17.7588C8.20092 18.9598 9.79516 20.4884 11.0046 20.7614C11.0596 20.7614 11.1145 20.816 11.1145 20.8705V24.3098C11.1145 24.4736 11.3344 24.5828 11.4444 24.419L13.0936 22.7267C13.0936 22.7267 14.413 21.3619 14.6329 21.1435C14.6329 21.1435 14.6878 21.0889 14.7428 21.0889C16.392 21.1435 18.0962 20.9797 19.7454 20.7068C21.0098 20.4338 22.6041 18.9053 22.8789 17.7042C23.3737 15.3568 23.3737 12.9548 22.8789 10.6074C22.5491 9.46095 20.9548 7.93239 19.6904 7.65944ZM19.7454 17.9226C19.4705 18.4685 19.1407 18.9053 18.591 19.1782C18.426 19.2328 18.2611 19.2874 18.0962 19.342C17.8763 19.2874 17.7114 19.2328 17.5465 19.1782C15.7873 18.4685 14.1381 17.4859 12.8187 16.0665C12.1041 15.2476 11.4993 14.3196 11.0046 13.3369C10.7847 12.8456 10.5648 12.4089 10.3999 11.9176C10.2349 11.4808 10.5098 11.0441 10.7847 10.7166C11.0596 10.389 11.3894 10.1706 11.7742 10.0069C12.0491 9.84309 12.324 9.95227 12.5438 10.1706C12.9836 10.7166 13.4234 11.2625 13.7533 11.863C13.9732 12.2451 13.9182 12.6818 13.5334 12.9548C13.4234 13.0094 13.3685 13.064 13.2585 13.1732C13.2035 13.2278 13.0936 13.2823 13.0386 13.3915C12.9287 13.5553 12.9287 13.7191 12.9836 13.8829C13.4234 15.1385 14.248 16.1211 15.5124 16.667C15.7323 16.7762 15.8973 16.8308 16.1721 16.8308C16.5569 16.7762 16.7219 16.3395 16.9967 16.1211C17.2716 15.9027 17.6014 15.9027 17.9313 16.0665C18.2062 16.2303 18.481 16.4486 18.8109 16.667C19.0857 16.8854 19.3606 17.0492 19.6355 17.2675C19.8004 17.3767 19.8554 17.6497 19.7454 17.9226ZM17.4365 13.8283C17.3266 13.8283 17.3815 13.8283 17.4365 13.8283C17.2166 13.8283 17.1616 13.7191 17.1067 13.5553C17.1067 13.4461 17.1067 13.2823 17.0517 13.1732C16.9967 12.9548 16.8868 12.7364 16.6669 12.5727C16.5569 12.5181 16.447 12.4635 16.337 12.4089C16.1721 12.3543 16.0622 12.3543 15.8973 12.3543C15.7323 12.2997 15.6774 12.1905 15.6774 12.0267C15.6774 11.9176 15.8423 11.8084 15.9522 11.8084C16.8318 11.863 17.4915 12.3543 17.6014 13.3915C17.6014 13.4461 17.6014 13.5553 17.6014 13.6099C17.6014 13.7191 17.5465 13.8283 17.4365 13.8283ZM16.8868 11.4262C16.6119 11.3171 16.337 11.2079 16.0072 11.1533C15.8973 11.1533 15.7323 11.0987 15.6224 11.0987C15.4575 11.0987 15.3475 10.9895 15.4025 10.8257C15.4025 10.662 15.5124 10.5528 15.6774 10.6074C16.2271 10.662 16.7219 10.7711 17.2166 10.9895C18.2062 11.4808 18.7559 12.2997 18.9208 13.3915C18.9208 13.4461 18.9208 13.5007 18.9208 13.5553C18.9208 13.6645 18.9208 13.7737 18.9208 13.9374C18.9208 13.992 18.9208 14.0466 18.9208 14.1012C18.8658 14.3196 18.481 14.3742 18.426 14.1012C18.426 14.0466 18.3711 13.9374 18.3711 13.8829C18.3711 13.3915 18.2611 12.9002 18.0412 12.4635C17.7114 11.9722 17.3266 11.6446 16.8868 11.4262ZM19.8554 14.7017C19.6904 14.7017 19.5805 14.5379 19.5805 14.3742C19.5805 14.0466 19.5255 13.7191 19.4705 13.3915C19.2507 11.6446 17.8213 10.2252 16.1171 9.95227C15.8423 9.89768 15.5674 9.89768 15.3475 9.84309C15.1826 9.84309 14.9627 9.84309 14.9077 9.62472C14.8527 9.46095 15.0177 9.29718 15.1826 9.29718C15.2376 9.29718 15.2925 9.29718 15.2925 9.29718C17.5465 9.35177 15.4025 9.29718 15.2925 9.29718C17.6014 9.35177 19.5255 10.8803 19.9103 13.1732C19.9653 13.5553 20.0203 13.9374 20.0203 14.3742C20.1302 14.5379 20.0203 14.7017 19.8554 14.7017Z" fill="#1B1919"/>
</svg>
